<?xml version="1.0" encoding="UTF-8" standalone="no"?>
<!-- Created with Inkscape (http://www.inkscape.org/) -->

<svg
   width="201.80991mm"
   height="356.79584mm"
   viewBox="0 0 201.80991 356.79583"
   version="1.1"
   id="svg13973"
   sodipodi:docname="back.svg"
   inkscape:version="1.1 (c4e8f9e, 2021-05-24)"
   xmlns:inkscape="http://www.inkscape.org/namespaces/inkscape"
   xmlns:sodipodi="http://sodipodi.sourceforge.net/DTD/sodipodi-0.dtd"
   xmlns:xlink="http://www.w3.org/1999/xlink"
   xmlns="http://www.w3.org/2000/svg"
   xmlns:svg="http://www.w3.org/2000/svg">
  <sodipodi:namedview
     id="namedview13975"
     pagecolor="#6c6c6c"
     bordercolor="#999999"
     borderopacity="1"
     inkscape:pageshadow="0"
     inkscape:pageopacity="0"
     inkscape:pagecheckerboard="true"
     inkscape:document-units="mm"
     showgrid="false"
     fit-margin-top="0"
     fit-margin-left="0"
     fit-margin-right="0"
     fit-margin-bottom="0"
     inkscape:zoom="0.40641079"
     inkscape:cx="483.50094"
     inkscape:cy="756.62361"
     inkscape:window-width="1536"
     inkscape:window-height="915"
     inkscape:window-x="0"
     inkscape:window-y="23"
     inkscape:window-maximized="1"
     inkscape:current-layer="layer1" />
  <defs
     id="defs13970"><rect
   x="11.121993"
   y="9.7317438"
   width="777.14923"
   height="365.6355"
   id="rect17151" />
<path
   id="a"
   d="m 0,0.362 h 128.749 v 28.4 H 0 Z" />
<path
   id="c"
   d="M 0.828,0.284 H 6.23 V 8 H 0.828 Z" />
<mask
   id="b"
   fill="#ffffff">
  <use
     xlink:href="#a"
     id="use47047"
     x="0"
     y="0"
     width="100%"
     height="100%" />
</mask>

	
	
		
		
		
		
		
		
		
		
		
		
		
		
	
			
			
		</defs>
  <g
     inkscape:label="Layer 1"
     inkscape:groupmode="layer"
     id="layer1"
     transform="translate(-4.0950448)">
    <g
       aria-label="POWERED BY"
       id="text45171"
       style="font-size:15.0813px;line-height:1;stroke-width:0.264583">
      <path
         d="m 76.015426,326.65279 c 0,-1.6137 -1.040609,-2.66939 -2.66939,-2.66939 H 70.37502 c -0.105569,0 -0.150813,0.0452 -0.150813,0.15081 v 9.1996 c 0,0.10557 0.04524,0.15081 0.150813,0.15081 h 0.874716 c 0.105569,0 0.150813,-0.0452 0.150813,-0.15081 v -3.99655 c 0,-0.10557 0.04524,-0.15081 0.150813,-0.15081 h 1.794674 c 1.628781,0 2.66939,-1.10094 2.66939,-2.53366 z m -1.176341,0 c 0,0.82947 -0.678659,1.49305 -1.493049,1.49305 h -1.794674 c -0.10557,0 -0.150813,-0.0452 -0.150813,-0.15081 v -2.82021 c 0,-0.10557 0.04524,-0.15081 0.150813,-0.15081 h 1.794674 c 0.829472,0 1.493049,0.67866 1.493049,1.47797 z"
         style="font-family:ConduitITCStd;-inkscape-font-specification:ConduitITCStd;text-align:center;text-anchor:middle;fill:#ffffff"
         id="path49359" />
      <path
         d="m 82.859273,331.11686 v -4.7657 c 0,-1.49304 -1.04061,-2.51857 -2.66939,-2.51857 h -0.46752 c -1.628781,0 -2.66939,1.04061 -2.66939,2.51857 v 4.7657 c 0,1.49304 1.040609,2.51857 2.66939,2.51857 h 0.46752 c 1.62878,0 2.66939,-1.04061 2.66939,-2.51857 z m -1.191423,0 c 0,0.81439 -0.678658,1.47796 -1.477967,1.47796 h -0.46752 c -0.829472,0 -1.477968,-0.67866 -1.477968,-1.47796 v -4.7657 c 0,-0.82947 0.663577,-1.47796 1.477968,-1.47796 h 0.46752 c 0.81439,0 1.477967,0.66357 1.477967,1.47796 z"
         style="font-family:ConduitITCStd;-inkscape-font-specification:ConduitITCStd;text-align:center;text-anchor:middle;fill:#ffffff"
         id="path49361" />
      <path
         d="m 93.669737,324.16438 c 0.03016,-0.12065 -0.03016,-0.18098 -0.150813,-0.18098 h -0.980285 c -0.07541,0 -0.135731,0.0452 -0.150813,0.12065 l -1.116016,6.0476 c -0.04524,0.2413 -0.105569,0.66358 -0.150813,1.04061 h -0.03016 c -0.04524,-0.33179 -0.12065,-0.67866 -0.211138,-1.02553 l -1.704187,-6.10792 c -0.01508,-0.0754 -0.07541,-0.10557 -0.150813,-0.10557 h -0.34687 c -0.07541,0 -0.135731,0.0302 -0.150813,0.10557 l -1.704186,6.21349 c -0.105569,0.4072 -0.180976,0.73899 -0.211139,0.96521 h -0.03016 c -0.01508,-0.22622 -0.07541,-0.57309 -0.150813,-0.98029 l -1.176342,-6.15317 c -0.01508,-0.0754 -0.07541,-0.12065 -0.150813,-0.12065 h -0.980284 c -0.12065,0 -0.180976,0.0603 -0.150813,0.18098 l 1.990732,9.19959 c 0.01508,0.0754 0.07541,0.12065 0.150813,0.12065 h 0.678658 c 0.07541,0 0.135732,-0.0302 0.150813,-0.10557 l 1.689106,-5.71581 c 0.09049,-0.31671 0.165894,-0.66358 0.180975,-0.81439 h 0.03016 c 0.01508,0.15081 0.07541,0.49768 0.165894,0.81439 l 1.674024,5.71581 c 0.01508,0.0754 0.07541,0.10557 0.150813,0.10557 h 0.678659 c 0.07541,0 0.135732,-0.0452 0.150813,-0.12065 z"
         style="font-family:ConduitITCStd;-inkscape-font-specification:ConduitITCStd;text-align:center;text-anchor:middle;fill:#ffffff"
         id="path49363" />
      <path
         d="m 100.3352,333.33381 v -0.73899 c 0,-0.10557 -0.0452,-0.15081 -0.15081,-0.15081 h -3.860815 c -0.10557,0 -0.150813,-0.0452 -0.150813,-0.15081 v -2.95594 c 0,-0.10557 0.04524,-0.15081 0.150813,-0.15081 h 3.167072 c 0.10557,0 0.150813,-0.0452 0.150813,-0.15081 v -0.73899 c 0,-0.10557 -0.04524,-0.15081 -0.150813,-0.15081 h -3.167072 c -0.10557,0 -0.150813,-0.0452 -0.150813,-0.15081 v -2.82021 c 0,-0.10557 0.04524,-0.15081 0.150813,-0.15081 h 3.860815 c 0.10557,0 0.15081,-0.0452 0.15081,-0.15081 v -0.73899 c 0,-0.10557 -0.0452,-0.15081 -0.15081,-0.15081 h -5.037157 c -0.105569,0 -0.150813,0.0452 -0.150813,0.15081 v 9.1996 c 0,0.10557 0.04524,0.15081 0.150813,0.15081 h 5.037157 c 0.10557,0 0.15081,-0.0452 0.15081,-0.15081 z"
         style="font-family:ConduitITCStd;-inkscape-font-specification:ConduitITCStd;text-align:center;text-anchor:middle;fill:#ffffff"
         id="path49365" />
      <path
         d="m 107.78442,333.28856 -1.49305,-4.29817 c -0.0302,-0.0754 0,-0.13573 0.0754,-0.16589 0.66358,-0.28655 1.3724,-1.23667 1.3724,-2.0209 v -0.15081 c 0,-1.62878 -1.04061,-2.66939 -2.66939,-2.66939 h -2.97102 c -0.10557,0 -0.15081,0.0452 -0.15081,0.15081 v 9.1996 c 0,0.10557 0.0452,0.15081 0.15081,0.15081 h 0.87472 c 0.10557,0 0.15081,-0.0452 0.15081,-0.15081 v -3.99655 c 0,-0.10557 0.0452,-0.15081 0.15081,-0.15081 h 1.70419 c 0.0603,0 0.10557,0.0302 0.12065,0.0905 l 1.41764,4.10211 c 0.0151,0.0603 0.0754,0.10557 0.13573,0.10557 h 0.99537 c 0.13573,0 0.18098,-0.0754 0.13573,-0.19606 z m -1.22158,-6.63577 c 0,0.82947 -0.67866,1.49305 -1.49305,1.49305 h -1.79468 c -0.10557,0 -0.15081,-0.0452 -0.15081,-0.15081 v -2.82021 c 0,-0.10557 0.0452,-0.15081 0.15081,-0.15081 h 1.79468 c 0.82947,0 1.49305,0.67866 1.49305,1.47797 z"
         style="font-family:ConduitITCStd;-inkscape-font-specification:ConduitITCStd;text-align:center;text-anchor:middle;fill:#ffffff"
         id="path49367" />
      <path
         d="m 114.85684,333.33381 v -0.73899 c 0,-0.10557 -0.0452,-0.15081 -0.15081,-0.15081 h -3.86081 c -0.10557,0 -0.15082,-0.0452 -0.15082,-0.15081 v -2.95594 c 0,-0.10557 0.0452,-0.15081 0.15082,-0.15081 h 3.16707 c 0.10557,0 0.15081,-0.0452 0.15081,-0.15081 v -0.73899 c 0,-0.10557 -0.0452,-0.15081 -0.15081,-0.15081 h -3.16707 c -0.10557,0 -0.15082,-0.0452 -0.15082,-0.15081 v -2.82021 c 0,-0.10557 0.0452,-0.15081 0.15082,-0.15081 h 3.86081 c 0.10557,0 0.15081,-0.0452 0.15081,-0.15081 v -0.73899 c 0,-0.10557 -0.0452,-0.15081 -0.15081,-0.15081 h -5.03716 c -0.10557,0 -0.15081,0.0452 -0.15081,0.15081 v 9.1996 c 0,0.10557 0.0452,0.15081 0.15081,0.15081 h 5.03716 c 0.10557,0 0.15081,-0.0452 0.15081,-0.15081 z"
         style="font-family:ConduitITCStd;-inkscape-font-specification:ConduitITCStd;text-align:center;text-anchor:middle;fill:#ffffff"
         id="path49369" />
      <path
         d="m 122.26082,330.80015 v -4.14736 c 0,-1.62878 -1.04061,-2.66939 -2.66939,-2.66939 h -2.97102 c -0.10557,0 -0.15081,0.0452 -0.15081,0.15081 v 9.1996 c 0,0.10557 0.0452,0.15081 0.15081,0.15081 h 2.97102 c 1.62878,0 2.66939,-1.04061 2.66939,-2.68447 z m -1.17634,0.16589 c 0,0.82947 -0.67866,1.47797 -1.49305,1.47797 h -1.79468 c -0.10557,0 -0.15081,-0.0452 -0.15081,-0.15081 v -7.11838 c 0,-0.10557 0.0452,-0.15081 0.15081,-0.15081 h 1.79468 c 0.82947,0 1.49305,0.67866 1.49305,1.47797 z"
         style="font-family:ConduitITCStd;-inkscape-font-specification:ConduitITCStd;text-align:center;text-anchor:middle;fill:#ffffff"
         id="path49371" />
      <path
         d="m 132.77649,330.83031 v -0.22622 c 0,-0.73898 -0.52785,-1.49305 -1.04061,-1.80976 -0.12065,-0.0754 -0.12065,-0.18097 0.0151,-0.25638 0.55801,-0.33179 1.02553,-1.14618 1.02553,-1.73435 v -0.15081 c 0,-1.62878 -1.04061,-2.66939 -2.66939,-2.66939 h -2.97102 c -0.10557,0 -0.15081,0.0452 -0.15081,0.15081 v 9.1996 c 0,0.10557 0.0452,0.15081 0.15081,0.15081 h 2.97102 c 1.62878,0 2.66939,-1.02553 2.66939,-2.65431 z m -1.17634,-4.17752 c 0,0.82947 -0.67866,1.49305 -1.49305,1.49305 h -1.79468 c -0.10556,0 -0.15081,-0.0452 -0.15081,-0.15081 v -2.82021 c 0,-0.10557 0.0453,-0.15081 0.15081,-0.15081 h 1.79468 c 0.82947,0 1.49305,0.67866 1.49305,1.47797 z m 0,4.31325 c 0,0.82947 -0.67866,1.47797 -1.49305,1.47797 h -1.79468 c -0.10556,0 -0.15081,-0.0452 -0.15081,-0.15081 v -2.95594 c 0,-0.10557 0.0453,-0.15081 0.15081,-0.15081 h 1.79468 c 0.82947,0 1.49305,0.66358 1.49305,1.46288 z"
         style="font-family:ConduitITCStd;-inkscape-font-specification:ConduitITCStd;text-align:center;text-anchor:middle;fill:#ffffff"
         id="path49373" />
      <path
         d="m 139.74334,324.20962 c 0.0754,-0.13573 0.0151,-0.22622 -0.13573,-0.22622 H 138.567 c -0.0603,0 -0.10557,0.0452 -0.13573,0.0905 l -1.74943,3.61951 c -0.0754,0.15081 -0.19606,0.15081 -0.27146,0 l -1.74943,-3.61951 c -0.0302,-0.0453 -0.0754,-0.0905 -0.13574,-0.0905 h -1.05569 c -0.15081,0 -0.21114,0.0905 -0.13573,0.22622 l 2.60907,4.90142 v 4.22277 c 0,0.10557 0.0452,0.15081 0.15081,0.15081 h 0.8898 c 0.10556,0 0.15081,-0.0452 0.15081,-0.15081 v -4.22277 z"
         style="font-family:ConduitITCStd;-inkscape-font-specification:ConduitITCStd;text-align:center;text-anchor:middle;fill:#ffffff"
         id="path49375" />
    </g>
    <g
       id="g49597">
      <path
         fill="#ffffff"
         d="m 54.249,21.16 -2.727,1.002 -4.014,-5.593 c -0.245,-0.37 -0.561,-0.517 -1.01,-0.573 h -0.855 v 5.88 H 42.916 L 43.058,7.39 h 4.59 c 3.532,-0.029 4.955,1.856 5.02,4.162 -0.065,1.84 -1.174,3.161 -2.868,3.727 z m 16.92,-6.598 c 0.02,4.338 -3.646,7.268 -7.457,7.314 h -5.02 L 58.838,7.39 h 4.734 c 4.578,-0.055 7.617,2.793 7.597,7.172 z M 79.489,7.39 79.348,21.876 H 76.624 L 76.764,7.39 h 2.726 z m 8.75,14.486 H 85.517 L 85.659,7.819 88.099,6.957 94.979,18.145 94.838,7.39 h 2.725 l -0.142,13.914 -2.723,0.858 -6.6,-11.047 h -0.141 z m 27.397,-0.572 -2.58,0.858 -1.435,-4.158 h -5.02 l -1.725,4.158 -2.435,-0.858 5.593,-13.915 h 2.439 z m -85.4,2.85 a 10.054,10.054 0 0 1 -7.79,-0.353 9.974,9.974 0 0 1 -5.182,-5.704 l -0.01,-0.02 c 0.003,0.006 0.003,0.008 0.007,0.01 A 10.214,10.214 0 0 1 16.61,14.53 c 0,-1.439 0.308,-2.863 0.922,-4.206 1.134,-2.49 3.193,-4.39 5.802,-5.36 5.266,-1.874 11.086,0.854 12.966,6.06 0.955,2.596 0.845,5.385 -0.304,7.865 a 10.105,10.105 0 0 1 -5.76,5.265 z M 35.547,6.1 33.452,0.361 17.635,6.1 H 0 v 16.926 h 18.016 l 2.096,5.737 15.807,-5.737 h 92.83 V 6.1 H 35.546 Z"
         mask="url(#b)"
         id="path47050"
         style="fill:#ffffff;fill-rule:evenodd"
         transform="matrix(0.5402139,0,0,0.5402139,70.224,335.18728)" />
      <path
         fill="#ffffff"
         d="m 95.80853,340.342 h -0.851377 v 2.32292 h 0.851377 c 0.442976,0.006 1.302456,-0.18691 1.318122,-1.23709 -0.01567,-0.71524 -0.602878,-1.10311 -1.318122,-1.08583 m 7.59433,5.42375 h 0.92971 c 1.6887,-0.0308 2.83126,-1.01236 2.86637,-2.78966 -0.0351,-1.45156 -1.04315,-2.57952 -2.55737,-2.55684 h -1.23871 v 5.34596 z m 26.73194,-2.015 -0.93025,-3.09866 -1.0075,3.09866 z m -46.749029,-4.35142 c -0.993453,0.36843 -1.777303,1.09285 -2.209474,2.04471 a 3.8382198,3.8382198 0 0 0 -0.10102,2.95173 l 0.0065,0.013 c 0.337634,0.95888 1.037211,1.72329 1.962597,2.16086 a 3.8187721,3.8187721 0 0 0 2.958212,0.13397 3.8549664,3.8549664 0 0 0 2.188406,-1.99879 c 0.438654,-0.94213 0.478089,-2.00527 0.110204,-3.00197 -0.712002,-1.98042 -2.921477,-3.01061 -4.915407,-2.30347"
         id="path47054"
         style="fill:#ffffff;fill-rule:evenodd;stroke-width:0.540214" />
      <path
         fill="#ffffff"
         d="m 95.954928,354.15635 -0.311163,-0.74873 c -0.12695,-0.30414 -0.259303,-0.77251 -0.259303,-0.77251 0,0 -0.12749,0.46837 -0.2539,0.77251 l -0.311163,0.74873 z m -0.596396,-3.12081 h 0.07617 l 1.972861,4.35142 h -0.932409 l -0.20312,-0.48781 h -1.750293 l -0.203661,0.48781 h -0.856239 z m 2.519018,-0.22851 h 0.856239 v 2.30293 c 0.165305,-0.31062 0.463503,-0.48241 0.837871,-0.48241 0.58991,0 1.01506,0.43217 1.01506,1.19927 v 1.56122 h -0.856777 v -1.50449 c 0,-0.30414 -0.145858,-0.47539 -0.449998,-0.47539 -0.343036,0 -0.546156,0.19015 -0.546156,0.53265 v 1.44669 H 97.87755 Z m 5.32921,2.9944 c -0.0378,-0.2982 -0.22851,-0.47539 -0.56452,-0.47539 -0.33602,0 -0.56507,0.15126 -0.63476,0.47539 z m -0.48835,0.93295 a 1.1722642,1.1722642 0 0 0 0.6785,-0.21608 l 0.48836,0.52671 c -0.2593,0.22851 -0.58992,0.39975 -1.15444,0.39975 -0.96428,0 -1.58607,-0.58343 -1.58607,-1.41482 0,-0.81896 0.65366,-1.40239 1.49099,-1.40239 0.97077,0 1.49694,0.72388 1.43373,1.66926 h -2.04849 c 0.0827,0.27875 0.31062,0.43757 0.69796,0.43757 z m 3.87657,-0.70444 c 0,-0.39921 -0.2096,-0.64717 -0.57803,-0.64717 -0.36086,0 -0.56398,0.2485 -0.56398,0.64717 0,0.41273 0.20312,0.66555 0.56452,0.66555 0.36735,0 0.57749,-0.25282 0.57749,-0.66555 m -2.03012,0 c 0,-0.81896 0.52617,-1.40239 1.20467,-1.40239 0.40679,0 0.67311,0.17179 0.82545,0.4635 l -0.013,-0.40624 h 0.85029 v 2.70269 h -0.85029 l 0.013,-0.41272 c -0.13937,0.27335 -0.42515,0.46998 -0.83787,0.46998 -0.64664,0 -1.19225,-0.58343 -1.19225,-1.41482 m 5.53179,0 c 0,-0.39921 -0.24094,-0.64717 -0.60882,-0.64717 -0.36195,0 -0.59046,0.2485 -0.59046,0.64717 0,0.42515 0.22851,0.66555 0.59046,0.66555 0.36788,0 0.60882,-0.2404 0.60882,-0.66555 m -2.08091,0 c 0,-0.83139 0.55858,-1.40239 1.2117,-1.40239 0.43109,0 0.67257,0.17179 0.84382,0.43811 v -2.25809 h 0.85678 v 4.57993 h -0.85678 l 0.0189,-0.39327 c -0.15235,0.28523 -0.43758,0.45053 -0.84976,0.45053 -0.66014,0 -1.22467,-0.58343 -1.22467,-1.41482 m 6.99145,0.0124 c 0,-0.40624 -0.22851,-0.67797 -0.60882,-0.67797 -0.38085,0 -0.61584,0.27173 -0.61584,0.67797 0,0.39976 0.23499,0.67959 0.61584,0.67959 0.38031,0 0.60882,-0.27929 0.60882,-0.67959 m -2.09981,0 c 0,-0.82383 0.65312,-1.41428 1.49099,-1.41428 0.83733,0 1.48451,0.59045 1.48451,1.41482 0,0.81842 -0.64718,1.40239 -1.48451,1.40239 -0.83787,0 -1.49099,-0.58343 -1.49099,-1.40239 m 3.80041,-0.64772 h -0.45054 v -0.71038 h 0.45054 v -0.90648 c 0,-0.69795 0.32953,-1.05288 0.99561,-1.05288 0.38085,0 0.63475,0.11399 0.83139,0.34196 l -0.46296,0.57101 c -0.0637,-0.0756 -0.13938,-0.14586 -0.27281,-0.14586 -0.14046,0 -0.235,0.0762 -0.235,0.27281 v 0.91998 h 0.72929 v 0.71038 h -0.72929 v 1.99231 h -0.85623 v -1.99231 z m 3.41955,0.63475 c 0,-0.81896 0.63421,-1.40239 1.47802,-1.40239 0.53914,0 0.86273,0.19718 1.13553,0.54021 l -0.60882,0.49376 a 0.63853283,0.63853283 0 0 0 -0.52671,-0.2847 c -0.38679,0 -0.60287,0.27227 -0.60287,0.65366 0,0.39328 0.21608,0.67203 0.60287,0.67203 0.27281,0 0.41867,-0.12695 0.54562,-0.2539 l 0.57695,0.5078 c -0.26633,0.2982 -0.58343,0.48835 -1.12257,0.48835 -0.84381,0 -1.47802,-0.58343 -1.47802,-1.41482 m 3.12136,-3.22291 h 0.85623 v 2.30293 c 0.16531,-0.31062 0.46297,-0.48241 0.83734,-0.48241 0.59045,0 1.0156,0.43217 1.0156,1.19927 v 1.56122 h -0.85678 v -1.50449 c 0,-0.30414 -0.14586,-0.47539 -0.45054,-0.47539 -0.3425,0 -0.54562,0.19015 -0.54562,0.53265 v 1.44669 h -0.85623 z m 5.30382,3.22291 c 0,-0.39921 -0.20907,-0.64717 -0.57803,-0.64717 -0.36087,0 -0.56399,0.2485 -0.56399,0.64717 0,0.41273 0.20312,0.66555 0.56453,0.66555 0.36842,0 0.57749,-0.25282 0.57749,-0.66555 m -2.03013,0 c 0,-0.81896 0.52671,-1.40239 1.20468,-1.40239 0.40678,0 0.67311,0.17179 0.82545,0.4635 l -0.0124,-0.40624 h 0.84976 v 2.70269 h -0.84976 l 0.0124,-0.41272 c -0.13938,0.27335 -0.42515,0.46998 -0.83734,0.46998 -0.64717,0 -1.19279,-0.58343 -1.19279,-1.41482 m 3.54002,-1.34513 h 0.85678 l -0.0194,0.44406 c 0.16531,-0.32305 0.48242,-0.50078 0.85678,-0.50078 0.58992,0 1.01507,0.43109 1.01507,1.19873 v 1.56068 h -0.85678 v -1.50341 c 0,-0.30468 -0.14586,-0.47593 -0.45,-0.47593 -0.34304,0 -0.54562,0.19015 -0.54562,0.53265 v 1.44669 h -0.85678 z"
         id="path47056"
         style="fill:#ffffff;fill-rule:evenodd;stroke-width:0.540214" />
      <g
         transform="matrix(0.5402139,0,0,0.5402139,132.88881,352.47413)"
         id="g47063"
         style="fill:#ffffff;fill-rule:evenodd">
        <mask
           id="d"
           fill="#ffffff">
          <use
             xlink:href="#c"
             id="use47058"
             x="0"
             y="0"
             width="100%"
             height="100%" />
        </mask>
        <path
           fill="#ffffff"
           d="m 4.68,2.88 c 0,-0.739 -0.446,-1.198 -1.127,-1.198 -0.67,0 -1.093,0.46 -1.093,1.198 0,0.787 0.423,1.232 1.093,1.232 0.68,0 1.127,-0.445 1.127,-1.232 M 0.863,6.767 1.979,5.9 c 0.352,0.434 0.763,0.774 1.48,0.774 0.727,0 1.186,-0.435 1.186,-1.35 V 4.725 C 4.375,5.183 3.858,5.5 3.095,5.5 1.873,5.5 0.828,4.42 0.828,2.88 c 0,-1.539 1.034,-2.596 2.242,-2.596 0.798,0 1.316,0.353 1.609,0.881 L 4.645,0.39 H 6.23 v 4.991 c 0,1.903 -1.245,2.62 -2.701,2.62 C 2.202,8 1.427,7.53 0.863,6.766"
           mask="url(#d)"
           id="path47061"
           style="fill:#ffffff" />
      </g>
      <path
         fill="#ffffff"
         d="m 138.89329,353.80143 c -0.0378,-0.2982 -0.22797,-0.47539 -0.56452,-0.47539 -0.33602,0 -0.56453,0.15126 -0.63475,0.47539 z m -0.48835,0.93295 c 0.31062,0 0.54561,-0.12101 0.67905,-0.21608 l 0.48835,0.52671 c -0.26038,0.22851 -0.58991,0.39975 -1.15498,0.39975 -0.96428,0 -1.58553,-0.58343 -1.58553,-1.41482 0,-0.81896 0.65366,-1.40239 1.49099,-1.40239 0.97023,0 1.49694,0.72388 1.43319,1.66926 h -2.04903 c 0.0827,0.27875 0.31062,0.43757 0.69796,0.43757 z"
         id="path47065"
         style="fill:#ffffff;fill-rule:evenodd;stroke-width:0.540214" />
    </g>
    <g
       id="g51415"
       transform="matrix(2.1899897,0,0,2.1899897,-114.57305,-44.307608)">
      <path
         class="st0"
         d="m 110.79816,48.662207 -4.69846,-2.451366 4.69846,-2.451392 c 0.81714,-0.408548 1.02142,-1.225696 0.61284,-2.042818 l -1.02139,-1.838543 c -0.40858,-0.817122 -1.2257,-1.021397 -2.04282,-0.612823 l -5.51561,2.85994 v -6.128461 c 0,-0.817122 -0.61284,-1.42997 -1.42997,-1.42997 h -2.247119 c -0.817122,0 -1.42997,0.612848 -1.42997,1.42997 v 6.128461 l -5.515606,-2.85994 c -0.817122,-0.408574 -1.634244,0 -2.042817,0.612823 l -1.021397,1.838543 c -0.408573,0.817122 0,1.63427 0.612848,2.042818 l 4.698484,2.451392 -4.698484,2.451366 c -0.817122,0.408573 -1.021421,1.225695 -0.612848,2.042817 l 1.021397,1.838544 c 0.408573,0.817122 1.225695,1.021396 2.042817,0.612848 l 5.515606,-2.85994 v 6.128428 c 0,0.817148 0.612848,1.429995 1.42997,1.429995 h 2.247119 c 0.81713,0 1.42997,-0.612847 1.42997,-1.429995 v -6.128428 l 5.51561,2.85994 c 0.81712,0.408548 1.63424,0 2.04282,-0.612848 l 1.02139,-1.838544 c 0.40858,-0.817122 0,-1.634244 -0.61284,-2.042817 z"
         id="path50283"
         style="stroke-width:2.04282" />
      <path
         class="st0"
         d="m 87.845973,20.23188 v 0 c -8.221662,0 -13.74559,5.138539 -13.74559,12.97481 v 10.277078 l -1.541562,1.92695 1.541562,1.926961 V 58.25707 c 0,7.836269 5.523928,12.97481 13.74559,12.97481 0.770781,0 1.284634,-0.513851 1.284634,-1.413094 v -2.055419 c 0,-0.770785 -0.513853,-1.413094 -1.284634,-1.413094 h -0.128459 c -4.367758,0 -8.093198,-3.853906 -8.093198,-8.221662 V 46.823828 l -1.284634,-1.541569 1.284634,-1.541573 V 33.078227 c 0,-4.496222 3.596977,-8.093198 8.221662,-8.093198 0,0 0,0 0,0 0,0 1.284633,0 1.284633,-1.413099 v -2.055415 c 0,-0.770781 -0.513852,-1.284635 -1.284633,-1.284635 z"
         id="path50305"
         style="fill:#ffffff;fill-opacity:1;stroke-width:1.28464" />
      <path
         class="st0"
         d="m 126.42775,43.425351 v -10.25126 c 0,-7.688442 -5.51005,-12.942211 -13.71105,-12.942211 v 0 c -0.76885,0 -1.28141,0.640704 -1.28141,1.409548 v 2.050251 c 0,1.409548 1.28141,1.409548 1.28141,1.409548 0,0 0,0 0,0 4.61306,0 8.201,3.58794 8.201,8.072864 v 10.63567 l 1.28141,1.5377 -1.28141,1.53769 v 11.27638 c 0,4.35678 -3.71608,8.20101 -8.07286,8.20101 h -0.12814 c -0.76884,0 -1.2814,0.64069 -1.2814,1.40954 v 2.05026 c 0,0.76883 0.51256,1.40954 1.2814,1.40954 8.20101,0 13.71106,-5.25377 13.71106,-12.94221 v -10.89196 l 1.53769,-1.92212 z"
         id="path50307"
         style="fill:#ffffff;fill-opacity:1;stroke-width:1.28141" />
    </g>
    <g
       id="g56358"
       transform="translate(-1.8895563e-6,21.695835)">
      <path
         d="m 31.059947,174.43249 -4.894786,-16.13957 c -0.02646,-0.13229 -0.132291,-0.18521 -0.264583,-0.18521 h -1.217082 c -0.132291,0 -0.238124,0.0529 -0.264583,0.18521 l -4.921243,16.13957 c -0.05292,0.21166 0.02646,0.34395 0.264583,0.34395 h 1.534581 c 0.132292,0 0.238125,-0.0529 0.264583,-0.1852 l 1.005416,-3.57187 c 0.02646,-0.1323 0.132291,-0.15875 0.264583,-0.15875 h 4.762493 c 0.132292,0 0.238125,0.0264 0.264583,0.15875 l 1.005416,3.57187 c 0.02646,0.13229 0.132291,0.1852 0.264583,0.1852 h 1.666873 c 0.238124,0 0.317499,-0.13229 0.264583,-0.34395 z m -3.88937,-5.74146 c 0.05292,0.18521 -0.02646,0.34396 -0.264583,0.34396 h -3.413121 c -0.238125,0 -0.3175,-0.15875 -0.264583,-0.34396 l 1.587498,-5.87374 c 0.264583,-0.97895 0.396874,-1.905 0.396874,-1.905 h 0.07937 c 0,0 0.132292,0.9525 0.370417,1.905 z"
         style="font-size:26.4583px;line-height:1.25;font-family:ConduitITCStd;-inkscape-font-specification:ConduitITCStd;text-align:center;text-anchor:middle;fill:#ffffff;stroke-width:0.264583"
         id="path56113" />
      <path
         d="m 42.544916,170.62249 c 0,-3.12208 -2.116664,-4.3127 -4.101037,-5.21228 -1.878539,-0.84667 -3.598329,-1.56104 -3.598329,-3.14854 0,-1.53458 1.005416,-2.59292 2.592914,-2.59292 h 0.423333 c 0.899582,0 1.799164,0.50271 2.354788,1.45521 0.07937,0.13229 0.185208,0.18521 0.3175,0.10583 l 1.40229,-0.68791 c 0.158749,-0.0794 0.211666,-0.21167 0.132291,-0.37042 -0.238125,-0.42333 -0.502708,-0.82021 -0.873124,-1.16416 -0.714374,-0.68792 -1.772706,-1.16417 -3.333745,-1.16417 h -0.423333 c -2.80458,0 -4.683119,1.87854 -4.683119,4.41854 0,3.06916 2.301872,4.10103 4.339161,5.02707 1.772706,0.79375 3.386662,1.56104 3.386662,3.33375 0,1.45521 -1.190623,2.59291 -2.619371,2.59291 H 36.72409 c -0.899583,0 -1.799165,-0.5027 -2.328331,-1.48166 -0.07937,-0.15875 -0.211666,-0.21167 -0.370416,-0.13229 l -1.375832,0.71437 c -0.158749,0.0794 -0.185208,0.21167 -0.105833,0.37042 0.291042,0.55562 0.661458,1.05833 1.164165,1.4552 0.687916,0.55563 1.640415,0.89959 3.016247,0.89959 h 1.137707 c 2.883954,0 4.683119,-1.82563 4.683119,-4.41854 z"
         style="font-size:26.4583px;line-height:1.25;font-family:ConduitITCStd;-inkscape-font-specification:ConduitITCStd;text-align:center;text-anchor:middle;fill:#ffffff;stroke-width:0.264583"
         id="path56115" />
      <path
         d="m 57.273094,174.37957 -5.714993,-9.23395 c -0.132291,-0.18521 -0.132291,-0.34396 0.02646,-0.52916 l 4.921244,-6.08541 c 0.185208,-0.21167 0.07937,-0.42334 -0.211666,-0.42334 h -1.799165 c -0.07937,0 -0.15875,0.0529 -0.211666,0.10584 l -5.926659,7.77874 c -0.185208,0.26458 -0.47625,0.15875 -0.47625,-0.15875 v -7.46124 c 0,-0.18521 -0.07937,-0.26459 -0.264583,-0.26459 h -1.534581 c -0.185208,0 -0.264583,0.0794 -0.264583,0.26459 v 16.13956 c 0,0.18521 0.07937,0.26458 0.264583,0.26458 h 1.534581 c 0.185208,0 0.264583,-0.0794 0.264583,-0.26458 v -5.2652 l 1.852081,-2.35479 c 0.105834,-0.15875 0.264583,-0.13229 0.370417,0.0265 l 4.736035,7.72582 c 0.05292,0.0794 0.15875,0.13229 0.238125,0.13229 h 1.957914 c 0.264583,0 0.370416,-0.1852 0.238125,-0.39687 z"
         style="font-size:26.4583px;line-height:1.25;font-family:ConduitITCStd;-inkscape-font-specification:ConduitITCStd;text-align:center;text-anchor:middle;fill:#ffffff;stroke-width:0.264583"
         id="path56117" />
      <path
         d="M 77.127566,174.51186 V 158.3723 c 0,-0.18521 -0.07937,-0.26459 -0.264583,-0.26459 h -1.455207 c -0.105833,0 -0.185208,0.0529 -0.238125,0.15875 l -4.153953,9.76312 c -0.07937,0.18521 -0.317499,0.84666 -0.370416,1.05833 h -0.07937 c -0.05292,-0.21167 -0.264583,-0.89958 -0.343958,-1.05833 l -4.153953,-9.76312 c -0.05292,-0.10583 -0.132291,-0.15875 -0.238124,-0.15875 H 64.37467 c -0.185208,0 -0.264583,0.0794 -0.264583,0.26459 v 16.13956 c 0,0.18521 0.07937,0.26458 0.264583,0.26458 h 1.534582 c 0.185208,0 0.264583,-0.0794 0.264583,-0.26458 v -5.45041 c 0,-2.56645 -0.07937,-4.73603 -0.238125,-6.13832 l 0.105833,-0.0265 c 0.132292,0.52916 0.423333,1.32291 0.661458,1.85208 l 3.307287,7.43478 c 0.05292,0.10583 0.132292,0.15875 0.238125,0.15875 h 0.714374 c 0.105833,0 0.185208,-0.0529 0.238125,-0.15875 l 3.333745,-7.43478 c 0.264583,-0.58208 0.555625,-1.45521 0.661458,-1.85208 l 0.105833,0.0265 c -0.132292,1.34937 -0.238125,3.62478 -0.238125,6.13832 v 5.45041 c 0,0.18521 0.07937,0.26458 0.264583,0.26458 h 1.534582 c 0.185208,0 0.264583,-0.0794 0.264583,-0.26458 z"
         style="font-size:26.4583px;line-height:1.25;font-family:ConduitITCStd;-inkscape-font-specification:ConduitITCStd;text-align:center;text-anchor:middle;fill:#ffffff;stroke-width:0.264583"
         id="path56119" />
      <path
         d="m 90.529524,174.51186 v -1.29646 c 0,-0.1852 -0.07937,-0.26458 -0.264583,-0.26458 h -6.773325 c -0.185208,0 -0.264583,-0.0794 -0.264583,-0.26458 v -5.18583 c 0,-0.18521 0.07937,-0.26458 0.264583,-0.26458 h 5.556243 c 0.185208,0 0.264583,-0.0794 0.264583,-0.26458 v -1.29646 c 0,-0.18521 -0.07937,-0.26458 -0.264583,-0.26458 h -5.556243 c -0.185208,0 -0.264583,-0.0794 -0.264583,-0.26459 v -4.9477 c 0,-0.18521 0.07937,-0.26458 0.264583,-0.26458 h 6.773325 c 0.185208,0 0.264583,-0.0794 0.264583,-0.26459 v -1.29645 c 0,-0.18521 -0.07937,-0.26459 -0.264583,-0.26459 h -8.837072 c -0.185208,0 -0.264583,0.0794 -0.264583,0.26459 v 16.13956 c 0,0.18521 0.07937,0.26458 0.264583,0.26458 h 8.837072 c 0.185208,0 0.264583,-0.0794 0.264583,-0.26458 z"
         style="font-size:26.4583px;line-height:1.25;font-family:ConduitITCStd;-inkscape-font-specification:ConduitITCStd;text-align:center;text-anchor:middle;fill:#ffffff;stroke-width:0.264583"
         id="path56121" />
      <path
         d="m 107.79935,174.43249 -4.89479,-16.13957 c -0.0264,-0.13229 -0.13229,-0.18521 -0.26458,-0.18521 h -1.21708 c -0.13229,0 -0.23813,0.0529 -0.26458,0.18521 l -4.921247,16.13957 c -0.05292,0.21166 0.02646,0.34395 0.264583,0.34395 h 1.534581 c 0.132291,0 0.238125,-0.0529 0.264583,-0.1852 l 1.005415,-3.57187 c 0.02646,-0.1323 0.132292,-0.15875 0.264583,-0.15875 h 4.762492 c 0.13229,0 0.23813,0.0264 0.26459,0.15875 l 1.00541,3.57187 c 0.0265,0.13229 0.13229,0.1852 0.26458,0.1852 h 1.66688 c 0.23812,0 0.3175,-0.13229 0.26458,-0.34395 z m -3.88937,-5.74146 c 0.0529,0.18521 -0.0265,0.34396 -0.26458,0.34396 h -3.41312 c -0.238129,0 -0.317504,-0.15875 -0.264587,-0.34396 l 1.587497,-5.87374 c 0.26458,-0.97895 0.39688,-1.905 0.39688,-1.905 h 0.0794 c 0,0 0.13229,0.9525 0.37042,1.905 z"
         style="font-size:26.4583px;line-height:1.25;font-family:ConduitITCStd;-inkscape-font-specification:ConduitITCStd;text-align:center;text-anchor:middle;fill:#ffffff;stroke-width:0.264583"
         id="path56123" />
      <path
         d="M 120.63369,174.51186 V 158.3723 c 0,-0.18521 -0.0794,-0.26459 -0.26458,-0.26459 h -1.56104 c -0.18521,0 -0.26458,0.0794 -0.26458,0.26459 v 5.68853 c 0,2.09021 0.0265,5.2652 0.0529,6.34999 h -0.0794 c -0.10583,-0.34395 -0.34396,-0.89958 -0.47625,-1.1377 l -6.03249,-11.03311 c -0.0529,-0.0794 -0.13229,-0.1323 -0.23813,-0.1323 h -1.4552 c -0.18521,0 -0.26459,0.0794 -0.26459,0.26459 v 16.13956 c 0,0.18521 0.0794,0.26458 0.26459,0.26458 h 1.53458 c 0.18521,0 0.26458,-0.0794 0.26458,-0.26458 v -5.60916 c 0,-2.80458 -0.0265,-5.50333 -0.0794,-6.45582 h 0.0794 c 0.10584,0.37041 0.3175,0.92604 0.50271,1.24354 l 6.03249,10.95373 c 0.0529,0.0794 0.15875,0.13229 0.23813,0.13229 h 1.48166 c 0.18521,0 0.26458,-0.0794 0.26458,-0.26458 z"
         style="font-size:26.4583px;line-height:1.25;font-family:ConduitITCStd;-inkscape-font-specification:ConduitITCStd;text-align:center;text-anchor:middle;fill:#ffffff;stroke-width:0.264583"
         id="path56125" />
      <path
         d="m 133.77644,158.50459 c 0.13229,-0.23813 0.0265,-0.39688 -0.23812,-0.39688 h -1.82563 c -0.10583,0 -0.1852,0.0794 -0.23812,0.15875 l -3.06916,6.35 c -0.13229,0.26458 -0.34396,0.26458 -0.47625,0 l -3.06916,-6.35 c -0.0529,-0.0794 -0.1323,-0.15875 -0.23813,-0.15875 h -1.85208 c -0.26458,0 -0.37042,0.15875 -0.23813,0.39688 l 4.57729,8.59895 v 7.40832 c 0,0.18521 0.0794,0.26458 0.26458,0.26458 h 1.56104 c 0.18521,0 0.26459,-0.0794 0.26459,-0.26458 v -7.40832 z"
         style="font-size:26.4583px;line-height:1.25;font-family:ConduitITCStd;-inkscape-font-specification:ConduitITCStd;text-align:center;text-anchor:middle;fill:#ffffff;stroke-width:0.264583"
         id="path56127" />
      <path
         d="m 143.17079,159.66875 v -1.29645 c 0,-0.18521 -0.0794,-0.26459 -0.26458,-0.26459 h -8.86353 c -0.18521,0 -0.26458,0.0794 -0.26458,0.26459 v 1.29645 c 0,0.18521 0.0794,0.26459 0.26458,0.26459 h 3.12208 c 0.18521,0 0.26458,0.0794 0.26458,0.26458 v 14.31394 c 0,0.18521 0.0794,0.26458 0.26459,0.26458 h 1.56104 c 0.1852,0 0.26458,-0.0794 0.26458,-0.26458 v -14.31394 c 0,-0.18521 0.0794,-0.26458 0.26458,-0.26458 h 3.12208 c 0.18521,0 0.26458,-0.0794 0.26458,-0.26459 z"
         style="font-size:26.4583px;line-height:1.25;font-family:ConduitITCStd;-inkscape-font-specification:ConduitITCStd;text-align:center;text-anchor:middle;fill:#ffffff;stroke-width:0.264583"
         id="path56129" />
      <path
         d="M 155.92865,174.51186 V 158.3723 c 0,-0.18521 -0.0794,-0.26459 -0.26458,-0.26459 h -1.56104 c -0.18521,0 -0.26458,0.0794 -0.26458,0.26459 v 6.77332 c 0,0.18521 -0.0794,0.26459 -0.26458,0.26459 h -5.90021 c -0.1852,0 -0.26458,-0.0794 -0.26458,-0.26459 v -6.77332 c 0,-0.18521 -0.0794,-0.26459 -0.26458,-0.26459 h -1.53458 c -0.18521,0 -0.26459,0.0794 -0.26459,0.26459 v 16.13956 c 0,0.18521 0.0794,0.26458 0.26459,0.26458 h 1.53458 c 0.18521,0 0.26458,-0.0794 0.26458,-0.26458 v -7.01145 c 0,-0.18521 0.0794,-0.26458 0.26458,-0.26458 h 5.90021 c 0.1852,0 0.26458,0.0794 0.26458,0.26458 v 7.01145 c 0,0.18521 0.0794,0.26458 0.26458,0.26458 h 1.56104 c 0.18521,0 0.26458,-0.0794 0.26458,-0.26458 z"
         style="font-size:26.4583px;line-height:1.25;font-family:ConduitITCStd;-inkscape-font-specification:ConduitITCStd;text-align:center;text-anchor:middle;fill:#ffffff;stroke-width:0.264583"
         id="path56131" />
      <path
         d="M 162.03349,174.51186 V 158.3723 c 0,-0.18521 -0.0794,-0.26459 -0.26458,-0.26459 h -1.53458 c -0.18521,0 -0.26458,0.0794 -0.26458,0.26459 v 16.13956 c 0,0.18521 0.0794,0.26458 0.26458,0.26458 h 1.53458 c 0.18521,0 0.26458,-0.0794 0.26458,-0.26458 z"
         style="font-size:26.4583px;line-height:1.25;font-family:ConduitITCStd;-inkscape-font-specification:ConduitITCStd;text-align:center;text-anchor:middle;fill:#ffffff;stroke-width:0.264583"
         id="path56133" />
      <path
         d="M 176.65088,174.51186 V 158.3723 c 0,-0.18521 -0.0794,-0.26459 -0.26459,-0.26459 h -1.56104 c -0.1852,0 -0.26458,0.0794 -0.26458,0.26459 v 5.68853 c 0,2.09021 0.0265,5.2652 0.0529,6.34999 h -0.0794 c -0.10583,-0.34395 -0.34396,-0.89958 -0.47625,-1.1377 l -6.03249,-11.03311 c -0.0529,-0.0794 -0.13229,-0.1323 -0.23812,-0.1323 h -1.45521 c -0.18521,0 -0.26458,0.0794 -0.26458,0.26459 v 16.13956 c 0,0.18521 0.0794,0.26458 0.26458,0.26458 h 1.53458 c 0.18521,0 0.26458,-0.0794 0.26458,-0.26458 v -5.60916 c 0,-2.80458 -0.0265,-5.50333 -0.0794,-6.45582 h 0.0794 c 0.10584,0.37041 0.3175,0.92604 0.50271,1.24354 l 6.03249,10.95373 c 0.0529,0.0794 0.15875,0.13229 0.23813,0.13229 h 1.48166 c 0.18521,0 0.26459,-0.0794 0.26459,-0.26458 z"
         style="font-size:26.4583px;line-height:1.25;font-family:ConduitITCStd;-inkscape-font-specification:ConduitITCStd;text-align:center;text-anchor:middle;fill:#ffffff;stroke-width:0.264583"
         id="path56135" />
      <path
         d="m 190.48153,170.62249 v -3.75708 c 0,-0.18521 -0.0794,-0.26458 -0.26458,-0.26458 H 185.428 c -0.18521,0 -0.26459,0.0794 -0.26459,0.26458 v 1.29646 c 0,0.18521 0.0794,0.26458 0.26459,0.26458 h 2.69874 c 0.18521,0 0.26459,0.0794 0.26459,0.26458 v 1.93146 c 0,1.42875 -1.19063,2.59291 -2.59292,2.59291 h -0.8202 c -1.45521,0 -2.59292,-1.19062 -2.59292,-2.59291 v -8.36082 c 0,-1.45521 1.16417,-2.59292 2.59292,-2.59292 h 1.29645 c 0.87313,0 1.79917,0.50271 2.35479,1.45521 0.0794,0.13229 0.18521,0.18521 0.3175,0.10583 l 1.40229,-0.68791 c 0.15875,-0.0794 0.21167,-0.21167 0.13229,-0.37042 -0.26458,-0.47625 -0.58208,-0.92604 -1.03187,-1.29645 -0.71438,-0.60855 -1.71979,-1.03188 -3.175,-1.03188 h -1.29645 c -2.8575,0 -4.68312,1.82562 -4.68312,4.41854 v 8.36082 c 0,2.61937 1.82562,4.41854 4.68312,4.41854 h 0.8202 c 2.8575,0 4.68312,-1.82563 4.68312,-4.41854 z"
         style="font-size:26.4583px;line-height:1.25;font-family:ConduitITCStd;-inkscape-font-specification:ConduitITCStd;text-align:center;text-anchor:middle;fill:#ffffff;stroke-width:0.264583"
         id="path56137" />
    </g>
    <g
       id="g56343"
       transform="translate(0.83271453,28.045835)">
      <path
         d="m 30.284594,140.10315 v -16.13956 c 0,-0.18521 -0.07937,-0.26458 -0.264583,-0.26458 H 28.48543 c -0.185208,0 -0.264583,0.0794 -0.264583,0.26458 v 16.13956 c 0,0.18521 0.07938,0.26459 0.264583,0.26459 h 1.534581 c 0.185209,0 0.264583,-0.0794 0.264583,-0.26459 z"
         style="font-size:26.4583px;line-height:1.25;font-family:ConduitITCStd;-inkscape-font-specification:ConduitITCStd;text-align:center;text-anchor:middle;fill:#ffffff;stroke-width:0.264583"
         id="path56089" />
      <path
         d="m 48.759102,140.02378 -4.894786,-16.13956 c -0.02646,-0.1323 -0.132291,-0.18521 -0.264583,-0.18521 h -1.217081 c -0.132292,0 -0.238125,0.0529 -0.264583,0.18521 l -4.921244,16.13956 c -0.05292,0.21167 0.02646,0.34396 0.264583,0.34396 h 1.534581 c 0.132292,0 0.238125,-0.0529 0.264583,-0.18521 l 1.005416,-3.57187 c 0.02646,-0.13229 0.132291,-0.15875 0.264583,-0.15875 h 4.762494 c 0.132291,0 0.238124,0.0265 0.264583,0.15875 l 1.005415,3.57187 c 0.02646,0.13229 0.132292,0.18521 0.264583,0.18521 h 1.666873 c 0.238125,0 0.3175,-0.13229 0.264583,-0.34396 z m -3.88937,-5.74145 c 0.05292,0.18521 -0.02646,0.34396 -0.264583,0.34396 h -3.413121 c -0.238124,0 -0.317499,-0.15875 -0.264583,-0.34396 l 1.587498,-5.87374 c 0.264583,-0.97896 0.396875,-1.905 0.396875,-1.905 h 0.07938 c 0,0 0.132291,0.9525 0.370416,1.905 z"
         style="font-size:26.4583px;line-height:1.25;font-family:ConduitITCStd;-inkscape-font-specification:ConduitITCStd;text-align:center;text-anchor:middle;fill:#ffffff;stroke-width:0.264583"
         id="path56091" />
      <path
         d="m 64.027609,140.10315 v -16.13956 c 0,-0.18521 -0.07937,-0.26458 -0.264583,-0.26458 h -1.455207 c -0.105833,0 -0.185208,0.0529 -0.238125,0.15875 l -4.153953,9.76311 c -0.07937,0.18521 -0.317499,0.84667 -0.370416,1.05833 h -0.07937 c -0.05292,-0.21166 -0.264583,-0.89958 -0.343958,-1.05833 l -4.153953,-9.76311 c -0.05292,-0.10584 -0.132291,-0.15875 -0.238124,-0.15875 h -1.455207 c -0.185208,0 -0.264583,0.0794 -0.264583,0.26458 v 16.13956 c 0,0.18521 0.07937,0.26459 0.264583,0.26459 h 1.534582 c 0.185208,0 0.264583,-0.0794 0.264583,-0.26459 v -5.45041 c 0,-2.56645 -0.07937,-4.73603 -0.238125,-6.13832 l 0.105833,-0.0265 c 0.132292,0.52917 0.423333,1.32292 0.661458,1.85208 l 3.307287,7.43478 c 0.05292,0.10584 0.132291,0.15875 0.238125,0.15875 h 0.714374 c 0.105833,0 0.185208,-0.0529 0.238124,-0.15875 L 61.4347,130.34 c 0.264583,-0.58208 0.555625,-1.45521 0.661458,-1.85208 l 0.105833,0.0265 c -0.132292,1.34937 -0.238125,3.62479 -0.238125,6.13832 v 5.45041 c 0,0.18521 0.07937,0.26459 0.264583,0.26459 h 1.534582 c 0.185208,0 0.264583,-0.0794 0.264583,-0.26459 z"
         style="font-size:26.4583px;line-height:1.25;font-family:ConduitITCStd;-inkscape-font-specification:ConduitITCStd;text-align:center;text-anchor:middle;fill:#ffffff;stroke-width:0.264583"
         id="path56093" />
      <path
         d="m 82.503769,140.02378 -4.894785,-16.13956 c -0.02646,-0.1323 -0.132292,-0.18521 -0.264583,-0.18521 h -1.217082 c -0.132292,0 -0.238125,0.0529 -0.264583,0.18521 l -4.921244,16.13956 c -0.05292,0.21167 0.02646,0.34396 0.264583,0.34396 h 1.534581 c 0.132292,0 0.238125,-0.0529 0.264583,-0.18521 l 1.005416,-3.57187 c 0.02646,-0.13229 0.132291,-0.15875 0.264583,-0.15875 h 4.762494 c 0.132291,0 0.238124,0.0265 0.264583,0.15875 l 1.005415,3.57187 c 0.02646,0.13229 0.132292,0.18521 0.264583,0.18521 h 1.666873 c 0.238125,0 0.3175,-0.13229 0.264583,-0.34396 z m -3.88937,-5.74145 c 0.05292,0.18521 -0.02646,0.34396 -0.264583,0.34396 h -3.413121 c -0.238124,0 -0.317499,-0.15875 -0.264583,-0.34396 l 1.587498,-5.87374 c 0.264583,-0.97896 0.396875,-1.905 0.396875,-1.905 h 0.07937 c 0,0 0.132291,0.9525 0.370416,1.905 z"
         style="font-size:26.4583px;line-height:1.25;font-family:ConduitITCStd;-inkscape-font-specification:ConduitITCStd;text-align:center;text-anchor:middle;fill:#ffffff;stroke-width:0.264583"
         id="path56095" />
      <g
         id="g56217"
         transform="matrix(0.43259568,0,0,0.43259568,87.841061,122.76965)">
	<g
   id="g56215">
		<circle
   class="st0"
   cx="110.5"
   cy="38"
   r="2.9000001"
   id="circle56185" />

		<path
   class="st0"
   d="m 176.4,31.8 -2.3,-1.2 2.3,-1.2 c 0.4,-0.2 0.5,-0.6 0.3,-1 l -0.5,-0.9 c -0.2,-0.4 -0.6,-0.5 -1,-0.3 l -2.7,1.4 v -3 c 0,-0.4 -0.3,-0.7 -0.7,-0.7 h -1.1 c -0.4,0 -0.7,0.3 -0.7,0.7 v 3 l -2.7,-1.4 c -0.4,-0.2 -0.8,0 -1,0.3 l -0.5,0.9 c -0.2,0.4 0,0.8 0.3,1 l 2.3,1.2 -2.3,1.2 c -0.4,0.2 -0.5,0.6 -0.3,1 l 0.5,0.9 c 0.2,0.4 0.6,0.5 1,0.3 l 2.7,-1.4 v 3 c 0,0.4 0.3,0.7 0.7,0.7 h 1.1 c 0.4,0 0.7,-0.3 0.7,-0.7 v -3 l 2.7,1.4 c 0.4,0.2 0.8,0 1,-0.3 l 0.5,-0.9 c 0.2,-0.4 0,-0.8 -0.3,-1 z"
   id="path56187" />

		<path
   class="st0"
   d="m 13.8,5.5 h 1.9 c 2.1,0 4,1 5.6,3 0.3,0.5 1,0.5 1.5,0.3 L 24.3,8 C 24.7,7.8 24.9,7.5 25,7.2 25.1,6.9 25,6.5 24.8,6.2 24.2,5.2 23.3,4.4 22.4,3.8 20.6,2.5 18.3,1.8 15.6,1.8 H 13.7 C 7.3,1.8 3.1,5.8 3.1,11.9 v 19.6 c 0,6.1 4.3,10.1 10.6,10.1 h 1.9 c 2.9,0 5.3,-0.7 7.1,-2.2 0.8,-0.6 1.5,-1.4 2.1,-2.3 0.2,-0.3 0.3,-0.6 0.2,-1 -0.1,-0.4 -0.4,-0.7 -0.8,-0.9 l -1.5,-0.7 c -0.6,-0.3 -1.1,-0.2 -1.5,0.3 -1.4,2 -3.3,3 -5.5,3 H 13.8 C 10.3,37.8 7.5,35 7.5,31.4 V 11.8 c 0,-3.6 2.6,-6.3 6.3,-6.3 z"
   id="path56189" />

		<path
   class="st1"
   d="m 151.3,8.7 h -1.8 c -0.8,0 -1.3,0.5 -1.3,1.3 v 29.7 c 0,0.8 0.5,1.3 1.3,1.3 h 1.8 c 0.8,0 1.3,-0.5 1.3,-1.3 V 9.9 c 0,-0.8 -0.5,-1.2 -1.3,-1.2 z"
   id="path56191" />

		<path
   class="st1"
   d="M 161.1,4.8 V 3.7 c 0,-0.8 -0.5,-1.3 -1.3,-1.3 h -19 c -0.8,0 -1.3,0.5 -1.3,1.3 v 1.1 c 0,0.8 0.5,1.3 1.3,1.3 h 19 c 0.9,0 1.3,-0.5 1.3,-1.3 z"
   id="path56193" />

		<path
   class="st0"
   d="M 91.3,19.5 C 90.5,19.5 90,20 90,20.8 v 1.1 c 0,0.8 0.5,1.3 1.3,1.3 h 9 c 0.8,0 1.3,-0.5 1.3,-1.3 v -1.1 c 0,-0.8 -0.5,-1.3 -1.3,-1.3 z"
   id="path56195" />

		<path
   class="st1"
   d="m 128.4,19.3 -1.2,-0.5 c -3.1,-1.5 -6.6,-3.1 -6.6,-6.9 0,-3.8 2.4,-6.3 6.2,-6.3 h 0.9 c 2.1,0 4.2,1.1 5.6,3 0.3,0.5 0.9,0.6 1.6,0.3 l 1.5,-0.8 c 0.4,-0.2 0.6,-0.5 0.7,-0.8 0.1,-0.2 0.1,-0.6 -0.2,-1 -0.8,-1.1 -1.8,-2.1 -2.8,-2.7 -1.7,-1.1 -3.9,-1.7 -6.3,-1.7 h -0.9 c -6.3,0 -10.6,4 -10.6,10.1 0,6.8 4.8,9 9.9,11.4 l 0.6,0.3 c 3.7,1.7 7.5,3.5 7.5,7.9 0,3.7 -2.7,6.4 -6.4,6.4 h -2.5 c -2.1,0 -4,-1 -5.6,-3 -0.4,-0.5 -0.9,-0.6 -1.5,-0.4 l -1.6,0.9 c -0.4,0.2 -0.6,0.5 -0.7,0.9 -0.1,0.4 0,0.7 0.2,1 0.7,1 1.7,1.9 2.7,2.6 1.8,1.2 4,1.8 6.4,1.8 h 2.5 c 6.5,0 10.9,-4.1 10.9,-10.1 -0.1,-7.6 -4.8,-9.8 -10.3,-12.4 z"
   id="path56197" />

		<path
   class="st0"
   d="M 69.2,2.4 H 57.9 c -0.8,0 -1.3,0.5 -1.3,1.3 v 36 c 0,0.8 0.5,1.3 1.3,1.3 h 11.2 c 6.6,0 10.8,-4.2 10.8,-10.8 V 13 C 80,6.6 75.7,2.4 69.2,2.4 Z m 6.4,28.4 c 0,3.7 -2.8,6.4 -6.4,6.4 h -7.3 c -0.5,0 -0.8,-0.3 -0.8,-0.8 V 6.9 c 0,-0.5 0.3,-0.8 0.8,-0.8 h 7.3 c 3.6,0 6.4,2.8 6.4,6.3 z"
   id="path56199" />

		<path
   class="st0"
   d="m 88.2,6.1 h 15 c 0.8,0 1.3,-0.5 1.3,-1.3 V 3.7 c 0,-0.8 -0.5,-1.3 -1.3,-1.3 H 84.3 C 83.5,2.4 83,2.9 83,3.7 v 36 c 0,0.8 0.5,1.3 1.3,1.3 h 18.9 c 0.8,0 1.3,-0.5 1.3,-1.3 v -1.2 c 0,-0.8 -0.5,-1.3 -1.3,-1.3 h -15 c -0.5,0 -0.8,-0.3 -0.8,-0.8 V 6.9 c 0,-0.5 0.3,-0.8 0.8,-0.8 z"
   id="path56201" />

		<path
   class="st1"
   d="m 213.3,13.6 v -1 C 213.3,6.3 209.1,2.5 202.5,2.5 H 191.3 C 190.5,2.5 190,3 190,3.8 v 36 c 0,0.8 0.5,1.3 1.3,1.3 h 1.8 c 0.8,0 1.3,-0.5 1.3,-1.3 V 6.9 c 0,-0.5 0.3,-0.8 0.8,-0.8 h 7.3 c 3.8,0 6.4,2.5 6.4,6.3 V 13 c 0,3.7 -2.8,6.6 -6.4,6.6 h -4.2 c -0.8,0 -1.3,0.5 -1.3,1.3 V 22 c 0,1.3 1.3,1.3 1.3,1.3 h 4.5 l 5.8,16.8 c 0.1,0.5 0.6,0.9 1.2,0.9 h 2.1 c 0.6,0 1,-0.3 1.1,-0.5 0.1,-0.2 0.3,-0.6 0.1,-1.2 l -5.9,-17.1 c 3.5,-1.5 6.1,-5 6.1,-8.6 z"
   id="path56203" />

		<g
   id="g56207">
			<path
   class="st1"
   d="m 186.9,39.3 v 0 l -13.6,-36 c -0.2,-0.6 -0.6,-0.9 -1.2,-0.9 h -1.5 c -0.6,0 -1,0.4 -1.2,0.9 l -13.6,36 v 0 c -0.1,0.6 0,0.9 0.2,1.1 0.2,0.2 0.5,0.5 1.1,0.5 h 1.9 c 0.6,0 1,-0.4 1.2,-0.9 0,0 0,-0.1 0.1,-0.1 0.9,-2.2 10.4,-27.5 10.5,-27.8 0.1,-0.4 0.3,-0.5 0.6,-0.5 0.3,0 0.5,0.1 0.7,0.5 0.2,0.4 10.2,27.1 10.5,28 0.2,0.6 0.6,0.9 1.2,0.9 h 2 c 0.6,0 0.9,-0.2 1.1,-0.5 0,-0.3 0.1,-0.7 0,-1.2 z"
   id="path56205" />

		</g>

		<g
   id="g56213">
			<path
   class="st0"
   d="m 38.2,1.8 v 0 c -6.4,0 -10.7,4 -10.7,10.1 v 8 l -1.2,1.5 1.2,1.5 v 8.5 c 0,6.1 4.3,10.1 10.7,10.1 0.6,0 1,-0.4 1,-1.1 v -1.6 c 0,-0.6 -0.4,-1.1 -1,-1.1 h -0.1 c -3.4,0 -6.3,-3 -6.3,-6.4 v -8.8 l -1,-1.2 1,-1.2 v -8.3 c 0,-3.5 2.8,-6.3 6.4,-6.3 0,0 0,0 0,0 0,0 1,0 1,-1.1 V 2.8 c 0,-0.6 -0.4,-1 -1,-1 z"
   id="path56209" />

			<path
   class="st0"
   d="m 53.6,19.8 v -8 C 53.6,5.8 49.3,1.7 42.9,1.7 v 0 c -0.6,0 -1,0.5 -1,1.1 v 1.6 c 0,1.1 1,1.1 1,1.1 0,0 0,0 0,0 3.6,0 6.4,2.8 6.4,6.3 v 8.3 l 1,1.2 -1,1.2 v 8.8 c 0,3.4 -2.9,6.4 -6.3,6.4 h -0.1 c -0.6,0 -1,0.5 -1,1.1 v 1.6 c 0,0.6 0.4,1.1 1,1.1 6.4,0 10.7,-4.1 10.7,-10.1 v -8.5 l 1.2,-1.5 z"
   id="path56211" />

		</g>

	</g>

	</g>
    </g>
  </g>
  <style
     type="text/css"
     id="style48982">
        .st0{fill:#f08300;}
        .st1{fill:#ffffff;opacity:1.00;}
        .st3{fill:#ffffff;opacity:1.00;}
    </style>
  <style
     type="text/css"
     id="style50279">
        .st0{fill:#f08300;}
        .st1{fill:#ffffff;opacity:1.00;}
        .st3{fill:#ffffff;opacity:1.00;}
    </style>
  <style
     type="text/css"
     id="style56183">
        .st0{fill:#f08300;}
        .st1{fill:#ffffff;opacity:1.00;}
        .st3{fill:#ffffff;opacity:1.00;}
    </style>
</svg>
