<?xml version="1.0" encoding="utf-8"?>
<!-- Generator: Adobe Illustrator 19.1.0, SVG Export Plug-In . SVG Version: 6.00 Build 0)  -->
<svg version="1.1" id="Layer_1" xmlns="http://www.w3.org/2000/svg" xmlns:xlink="http://www.w3.org/1999/xlink" x="0px" y="0px"
	 viewBox="0 0 216.2 58.8" style="enable-background:new 0 0 216.2 58.8;" xml:space="preserve">
<style type="text/css">
	.st0{fill:#A60726;}
	.st1{fill:#FFFFFF;opacity:0.45;}
	.st2{opacity:0.45;}
	.st3{fill:#FFFFFF;opacity:0.70;}
</style>
<g>
	<g>
		<circle class="st0" cx="110.5" cy="38" r="2.9"/>
		<path class="st0" d="M176.4,31.8l-2.3-1.2l2.3-1.2c0.4-0.2,0.5-0.6,0.3-1l-0.5-0.9c-0.2-0.4-0.6-0.5-1-0.3l-2.7,1.4v-3
			c0-0.4-0.3-0.7-0.7-0.7h-1.1c-0.4,0-0.7,0.3-0.7,0.7v3l-2.7-1.4c-0.4-0.2-0.8,0-1,0.3l-0.5,0.9c-0.2,0.4,0,0.8,0.3,1l2.3,1.2
			l-2.3,1.2c-0.4,0.2-0.5,0.6-0.3,1l0.5,0.9c0.2,0.4,0.6,0.5,1,0.3l2.7-1.4v3c0,0.4,0.3,0.7,0.7,0.7h1.1c0.4,0,0.7-0.3,0.7-0.7v-3
			l2.7,1.4c0.4,0.2,0.8,0,1-0.3l0.5-0.9C176.9,32.4,176.7,32,176.4,31.8z"/>
		<path class="st0" d="M13.8,5.5h1.9c2.1,0,4,1,5.6,3c0.3,0.5,1,0.5,1.5,0.3L24.3,8c0.4-0.2,0.6-0.5,0.7-0.8c0.1-0.3,0-0.7-0.2-1
			c-0.6-1-1.5-1.8-2.4-2.4c-1.8-1.3-4.1-2-6.8-2h-1.9c-6.4,0-10.6,4-10.6,10.1v19.6c0,6.1,4.3,10.1,10.6,10.1h1.9
			c2.9,0,5.3-0.7,7.1-2.2c0.8-0.6,1.5-1.4,2.1-2.3c0.2-0.3,0.3-0.6,0.2-1c-0.1-0.4-0.4-0.7-0.8-0.9l-1.5-0.7
			c-0.6-0.3-1.1-0.2-1.5,0.3c-1.4,2-3.3,3-5.5,3h-1.9c-3.5,0-6.3-2.8-6.3-6.4V11.8C7.5,8.2,10.1,5.5,13.8,5.5z"/>
		<path class="st1" d="M151.3,8.7h-1.8c-0.8,0-1.3,0.5-1.3,1.3v29.7c0,0.8,0.5,1.3,1.3,1.3h1.8c0.8,0,1.3-0.5,1.3-1.3V9.9
			C152.6,9.1,152.1,8.7,151.3,8.7z"/>
		<path class="st1" d="M161.1,4.8V3.7c0-0.8-0.5-1.3-1.3-1.3h-19c-0.8,0-1.3,0.5-1.3,1.3v1.1c0,0.8,0.5,1.3,1.3,1.3h19
			C160.7,6.1,161.1,5.6,161.1,4.8z"/>
		<path class="st0" d="M91.3,19.5c-0.8,0-1.3,0.5-1.3,1.3v1.1c0,0.8,0.5,1.3,1.3,1.3h9c0.8,0,1.3-0.5,1.3-1.3v-1.1
			c0-0.8-0.5-1.3-1.3-1.3H91.3z"/>
		<path class="st1" d="M128.4,19.3l-1.2-0.5c-3.1-1.5-6.6-3.1-6.6-6.9c0-3.8,2.4-6.3,6.2-6.3h0.9c2.1,0,4.2,1.1,5.6,3
			c0.3,0.5,0.9,0.6,1.6,0.3l1.5-0.8c0.4-0.2,0.6-0.5,0.7-0.8c0.1-0.2,0.1-0.6-0.2-1c-0.8-1.1-1.8-2.1-2.8-2.7
			c-1.7-1.1-3.9-1.7-6.3-1.7h-0.9c-6.3,0-10.6,4-10.6,10.1c0,6.8,4.8,9,9.9,11.4l0.6,0.3c3.7,1.7,7.5,3.5,7.5,7.9
			c0,3.7-2.7,6.4-6.4,6.4h-2.5c-2.1,0-4-1-5.6-3c-0.4-0.5-0.9-0.6-1.5-0.4l-1.6,0.9c-0.4,0.2-0.6,0.5-0.7,0.9c-0.1,0.4,0,0.7,0.2,1
			c0.7,1,1.7,1.9,2.7,2.6c1.8,1.2,4,1.8,6.4,1.8h2.5c6.5,0,10.9-4.1,10.9-10.1C138.6,24.1,133.9,21.9,128.4,19.3z"/>
		<path class="st0" d="M69.2,2.4H57.9c-0.8,0-1.3,0.5-1.3,1.3v36c0,0.8,0.5,1.3,1.3,1.3h11.2c6.6,0,10.8-4.2,10.8-10.8V13
			C80,6.6,75.7,2.4,69.2,2.4z M75.6,30.8c0,3.7-2.8,6.4-6.4,6.4h-7.3c-0.5,0-0.8-0.3-0.8-0.8V6.9c0-0.5,0.3-0.8,0.8-0.8h7.3
			c3.6,0,6.4,2.8,6.4,6.3V30.8z"/>
		<path class="st0" d="M88.2,6.1h15c0.8,0,1.3-0.5,1.3-1.3V3.7c0-0.8-0.5-1.3-1.3-1.3H84.3c-0.8,0-1.3,0.5-1.3,1.3v36
			c0,0.8,0.5,1.3,1.3,1.3h18.9c0.8,0,1.3-0.5,1.3-1.3v-1.2c0-0.8-0.5-1.3-1.3-1.3h-15c-0.5,0-0.8-0.3-0.8-0.8V6.9
			C87.4,6.4,87.7,6.1,88.2,6.1z"/>
		<path class="st1" d="M213.3,13.6v-1c0-6.3-4.2-10.1-10.8-10.1h-11.2c-0.8,0-1.3,0.5-1.3,1.3v36c0,0.8,0.5,1.3,1.3,1.3h1.8
			c0.8,0,1.3-0.5,1.3-1.3V6.9c0-0.5,0.3-0.8,0.8-0.8h7.3c3.8,0,6.4,2.5,6.4,6.3V13c0,3.7-2.8,6.6-6.4,6.6h-4.2
			c-0.8,0-1.3,0.5-1.3,1.3v1.1c0,1.3,1.3,1.3,1.3,1.3h4.5l5.8,16.8c0.1,0.5,0.6,0.9,1.2,0.9h2.1c0.6,0,1-0.3,1.1-0.5
			c0.1-0.2,0.3-0.6,0.1-1.2l-5.9-17.1C210.7,20.7,213.3,17.2,213.3,13.6z"/>
		<g>
			<path class="st1" d="M186.9,39.3L186.9,39.3l-13.6-36c-0.2-0.6-0.6-0.9-1.2-0.9h-1.5c-0.6,0-1,0.4-1.2,0.9l-13.6,36l0,0
				c-0.1,0.6,0,0.9,0.2,1.1c0.2,0.2,0.5,0.5,1.1,0.5h1.9c0.6,0,1-0.4,1.2-0.9c0,0,0-0.1,0.1-0.1c0.9-2.2,10.4-27.5,10.5-27.8
				c0.1-0.4,0.3-0.5,0.6-0.5s0.5,0.1,0.7,0.5c0.2,0.4,10.2,27.1,10.5,28c0.2,0.6,0.6,0.9,1.2,0.9h2c0.6,0,0.9-0.2,1.1-0.5
				C186.9,40.2,187,39.8,186.9,39.3z"/>
		</g>
		<g>
			<path class="st0" d="M38.2,1.8L38.2,1.8c-6.4,0-10.7,4-10.7,10.1v8l-1.2,1.5l1.2,1.5v8.5c0,6.1,4.3,10.1,10.7,10.1
				c0.6,0,1-0.4,1-1.1v-1.6c0-0.6-0.4-1.1-1-1.1h-0.1c-3.4,0-6.3-3-6.3-6.4v-8.8l-1-1.2l1-1.2v-8.3c0-3.5,2.8-6.3,6.4-6.3
				c0,0,0,0,0,0c0,0,1,0,1-1.1V2.8C39.2,2.2,38.8,1.8,38.2,1.8z"/>
			<path class="st0" d="M53.6,19.8v-8c0-6-4.3-10.1-10.7-10.1h0c-0.6,0-1,0.5-1,1.1v1.6c0,1.1,1,1.1,1,1.1c0,0,0,0,0,0
				c3.6,0,6.4,2.8,6.4,6.3v8.3l1,1.2l-1,1.2v8.8c0,3.4-2.9,6.4-6.3,6.4h-0.1c-0.6,0-1,0.5-1,1.1v1.6c0,0.6,0.4,1.1,1,1.1
				c6.4,0,10.7-4.1,10.7-10.1v-8.5l1.2-1.5L53.6,19.8z"/>
		</g>
	</g>
	<g>
		<g>
			<path class="st3" d="M27.82,53.88h-0.95c-0.06,0-0.08,0.02-0.08,0.08v2.12c0,0.06-0.02,0.08-0.08,0.08h-0.46
				c-0.06,0-0.08-0.02-0.08-0.08v-4.88c0-0.06,0.02-0.08,0.08-0.08h1.58c0.86,0,1.42,0.56,1.42,1.42
				C29.24,53.3,28.69,53.88,27.82,53.88z M28.62,52.46c0-0.42-0.35-0.78-0.79-0.78h-0.95c-0.06,0-0.08,0.02-0.08,0.08v1.5
				c0,0.06,0.02,0.08,0.08,0.08h0.95c0.43,0,0.79-0.35,0.79-0.79V52.46z"/>
			<path class="st3" d="M32.5,56.16h-0.5c-0.04,0-0.07-0.02-0.08-0.06l-0.3-1.08c-0.01-0.04-0.04-0.05-0.08-0.05h-1.44
				c-0.04,0-0.07,0.01-0.08,0.05l-0.3,1.08c-0.01,0.04-0.04,0.06-0.08,0.06h-0.46c-0.07,0-0.1-0.04-0.08-0.1l1.49-4.88
				c0.01-0.04,0.04-0.06,0.08-0.06h0.37c0.04,0,0.07,0.02,0.08,0.06l1.48,4.88C32.59,56.12,32.57,56.16,32.5,56.16z M30.94,52.55
				c-0.07-0.29-0.11-0.58-0.11-0.58h-0.02c0,0-0.04,0.28-0.12,0.58l-0.48,1.78c-0.02,0.06,0.01,0.1,0.08,0.1h1.03
				c0.07,0,0.1-0.05,0.08-0.1L30.94,52.55z"/>
			<path class="st3" d="M34.63,56.24h-0.34c-0.42,0-0.7-0.1-0.91-0.27c-0.15-0.12-0.26-0.27-0.35-0.44
				c-0.02-0.05-0.02-0.09,0.03-0.11l0.42-0.22c0.05-0.02,0.09-0.01,0.11,0.04c0.16,0.3,0.43,0.45,0.7,0.45h0.34
				c0.43,0,0.79-0.34,0.79-0.78c0-0.54-0.49-0.77-1.02-1.01c-0.62-0.28-1.31-0.59-1.31-1.52c0-0.77,0.57-1.33,1.42-1.33h0.13
				c0.47,0,0.79,0.14,1.01,0.35c0.11,0.1,0.19,0.22,0.26,0.35c0.02,0.05,0.01,0.09-0.04,0.11l-0.42,0.21
				c-0.04,0.02-0.07,0.01-0.1-0.03c-0.17-0.29-0.44-0.44-0.71-0.44H34.5c-0.48,0-0.78,0.32-0.78,0.78c0,0.48,0.52,0.7,1.09,0.95
				c0.6,0.27,1.24,0.63,1.24,1.58C36.05,55.69,35.5,56.24,34.63,56.24z"/>
			<path class="st3" d="M38.22,56.24h-0.34c-0.42,0-0.7-0.1-0.91-0.27c-0.15-0.12-0.26-0.27-0.35-0.44
				c-0.02-0.05-0.02-0.09,0.03-0.11l0.42-0.22c0.05-0.02,0.09-0.01,0.11,0.04c0.16,0.3,0.43,0.45,0.7,0.45h0.34
				c0.43,0,0.79-0.34,0.79-0.78c0-0.54-0.49-0.77-1.02-1.01c-0.62-0.28-1.31-0.59-1.31-1.52c0-0.77,0.57-1.33,1.42-1.33h0.13
				c0.47,0,0.79,0.14,1.01,0.35c0.11,0.1,0.19,0.22,0.26,0.35c0.02,0.05,0.01,0.09-0.04,0.11l-0.42,0.21
				c-0.04,0.02-0.07,0.01-0.1-0.03c-0.17-0.29-0.44-0.44-0.71-0.44h-0.13c-0.48,0-0.78,0.32-0.78,0.78c0,0.48,0.52,0.7,1.09,0.95
				c0.6,0.27,1.24,0.63,1.24,1.58C39.63,55.69,39.09,56.24,38.22,56.24z"/>
			<path class="st3" d="M41.16,56.16H40.7c-0.06,0-0.08-0.02-0.08-0.08v-4.88c0-0.06,0.02-0.08,0.08-0.08h0.46
				c0.06,0,0.08,0.02,0.08,0.08v4.88C41.24,56.14,41.22,56.16,41.16,56.16z"/>
			<path class="st3" d="M44.01,56.24h-0.25c-0.86,0-1.42-0.54-1.42-1.33v-2.53c0-0.78,0.55-1.33,1.42-1.33h0.25
				c0.86,0,1.42,0.54,1.42,1.33v2.53C45.42,55.69,44.87,56.24,44.01,56.24z M44.79,52.38c0-0.43-0.35-0.78-0.78-0.78h-0.25
				c-0.43,0-0.78,0.34-0.78,0.78v2.53c0,0.42,0.34,0.78,0.78,0.78h0.25c0.42,0,0.78-0.35,0.78-0.78V52.38z"/>
			<path class="st3" d="M49.64,56.16h-0.45c-0.02,0-0.06-0.02-0.07-0.04l-1.82-3.31c-0.06-0.1-0.12-0.26-0.15-0.38h-0.02
				c0.02,0.29,0.02,1.1,0.02,1.95v1.7c0,0.06-0.02,0.08-0.08,0.08H46.6c-0.06,0-0.08-0.02-0.08-0.08v-4.88
				c0-0.06,0.02-0.08,0.08-0.08h0.44c0.03,0,0.06,0.02,0.07,0.04l1.82,3.33c0.04,0.07,0.11,0.24,0.14,0.34h0.02
				c-0.01-0.33-0.02-1.29-0.02-1.92v-1.72c0-0.06,0.02-0.08,0.08-0.08h0.47c0.06,0,0.08,0.02,0.08,0.08v4.88
				C49.72,56.14,49.69,56.16,49.64,56.16z"/>
			<path class="st3" d="M53.81,56.16h-0.5c-0.04,0-0.07-0.02-0.08-0.06l-0.3-1.08c-0.01-0.04-0.04-0.05-0.08-0.05h-1.44
				c-0.04,0-0.07,0.01-0.08,0.05l-0.3,1.08c-0.01,0.04-0.04,0.06-0.08,0.06h-0.46c-0.07,0-0.1-0.04-0.08-0.1l1.49-4.88
				c0.01-0.04,0.04-0.06,0.08-0.06h0.37c0.04,0,0.07,0.02,0.08,0.06l1.48,4.88C53.91,56.12,53.89,56.16,53.81,56.16z M52.26,52.55
				c-0.07-0.29-0.11-0.58-0.11-0.58h-0.02c0,0-0.04,0.28-0.12,0.58l-0.48,1.78c-0.02,0.06,0.01,0.1,0.08,0.1h1.03
				c0.07,0,0.1-0.05,0.08-0.1L52.26,52.55z"/>
			<path class="st3" d="M56.5,51.68h-0.94c-0.06,0-0.08,0.02-0.08,0.08v4.33c0,0.06-0.02,0.08-0.08,0.08h-0.47
				c-0.06,0-0.08-0.02-0.08-0.08v-4.33c0-0.06-0.02-0.08-0.08-0.08h-0.94c-0.06,0-0.08-0.02-0.08-0.08v-0.39
				c0-0.06,0.02-0.08,0.08-0.08h2.68c0.06,0,0.08,0.02,0.08,0.08v0.39C56.58,51.65,56.55,51.68,56.5,51.68z"/>
			<path class="st3" d="M59.98,56.16h-2.67c-0.06,0-0.08-0.02-0.08-0.08v-4.88c0-0.06,0.02-0.08,0.08-0.08h2.67
				c0.06,0,0.08,0.02,0.08,0.08v0.39c0,0.06-0.02,0.08-0.08,0.08h-2.05c-0.06,0-0.08,0.02-0.08,0.08v1.5c0,0.06,0.02,0.08,0.08,0.08
				h1.68c0.06,0,0.08,0.02,0.08,0.08v0.39c0,0.06-0.02,0.08-0.08,0.08h-1.68c-0.06,0-0.08,0.02-0.08,0.08v1.57
				c0,0.06,0.02,0.08,0.08,0.08h2.05c0.06,0,0.08,0.02,0.08,0.08v0.39C60.06,56.14,60.04,56.16,59.98,56.16z"/>
			<path class="st3" d="M63.98,53.88h-0.95c-0.06,0-0.08,0.02-0.08,0.08v2.12c0,0.06-0.02,0.08-0.08,0.08H62.4
				c-0.06,0-0.08-0.02-0.08-0.08v-4.88c0-0.06,0.02-0.08,0.08-0.08h1.58c0.86,0,1.42,0.56,1.42,1.42
				C65.39,53.3,64.84,53.88,63.98,53.88z M64.77,52.46c0-0.42-0.35-0.78-0.79-0.78h-0.95c-0.06,0-0.08,0.02-0.08,0.08v1.5
				c0,0.06,0.02,0.08,0.08,0.08h0.95c0.43,0,0.79-0.35,0.79-0.79V52.46z"/>
			<path class="st3" d="M69.07,56.16h-0.53c-0.03,0-0.06-0.02-0.07-0.06l-0.75-2.17c-0.01-0.03-0.03-0.05-0.06-0.05h-0.9
				c-0.06,0-0.08,0.02-0.08,0.08v2.12c0,0.06-0.02,0.08-0.08,0.08h-0.46c-0.06,0-0.08-0.02-0.08-0.08v-4.88
				c0-0.06,0.02-0.08,0.08-0.08h1.58c0.86,0,1.42,0.55,1.42,1.42v0.08c0,0.42-0.38,0.92-0.73,1.07c-0.04,0.02-0.06,0.05-0.04,0.09
				l0.79,2.28C69.17,56.12,69.14,56.16,69.07,56.16z M68.5,52.46c0-0.42-0.35-0.78-0.79-0.78h-0.95c-0.06,0-0.08,0.02-0.08,0.08v1.5
				c0,0.06,0.02,0.08,0.08,0.08h0.95c0.43,0,0.79-0.35,0.79-0.79V52.46z"/>
			<path class="st3" d="M71.62,56.24h-0.25c-0.86,0-1.42-0.54-1.42-1.33v-2.53c0-0.78,0.55-1.33,1.42-1.33h0.25
				c0.86,0,1.42,0.54,1.42,1.33v2.53C73.03,55.69,72.48,56.24,71.62,56.24z M72.4,52.38c0-0.43-0.35-0.78-0.78-0.78h-0.25
				c-0.43,0-0.78,0.34-0.78,0.78v2.53c0,0.42,0.34,0.78,0.78,0.78h0.25c0.42,0,0.78-0.35,0.78-0.78V52.38z"/>
			<path class="st3" d="M75.67,56.24h-0.25c-0.86,0-1.42-0.54-1.42-1.33v-2.53c0-0.78,0.55-1.33,1.42-1.33h0.39
				c0.44,0,0.74,0.13,0.96,0.31c0.14,0.11,0.23,0.25,0.31,0.39c0.02,0.05,0.01,0.09-0.04,0.11l-0.42,0.21
				c-0.04,0.02-0.07,0.01-0.1-0.03c-0.17-0.29-0.45-0.44-0.71-0.44h-0.39c-0.43,0-0.78,0.34-0.78,0.78v2.53
				c0,0.42,0.34,0.78,0.78,0.78h0.25c0.42,0,0.78-0.35,0.78-0.78v-0.58c0-0.06-0.02-0.08-0.08-0.08h-0.82
				c-0.06,0-0.08-0.02-0.08-0.08v-0.39c0-0.06,0.02-0.08,0.08-0.08h1.45c0.06,0,0.08,0.02,0.08,0.08v1.14
				C77.09,55.69,76.54,56.24,75.67,56.24z"/>
			<path class="st3" d="M81.19,56.16h-0.53c-0.03,0-0.06-0.02-0.07-0.06l-0.75-2.17c-0.01-0.03-0.03-0.05-0.06-0.05h-0.9
				c-0.06,0-0.08,0.02-0.08,0.08v2.12c0,0.06-0.02,0.08-0.08,0.08h-0.46c-0.06,0-0.08-0.02-0.08-0.08v-4.88
				c0-0.06,0.02-0.08,0.08-0.08h1.58c0.86,0,1.42,0.55,1.42,1.42v0.08c0,0.42-0.38,0.92-0.73,1.07c-0.04,0.02-0.06,0.05-0.04,0.09
				l0.79,2.28C81.29,56.12,81.26,56.16,81.19,56.16z M80.61,52.46c0-0.42-0.35-0.78-0.79-0.78h-0.95c-0.06,0-0.08,0.02-0.08,0.08
				v1.5c0,0.06,0.02,0.08,0.08,0.08h0.95c0.43,0,0.79-0.35,0.79-0.79V52.46z"/>
			<path class="st3" d="M85.06,56.16h-0.5c-0.04,0-0.07-0.02-0.08-0.06l-0.3-1.08c-0.01-0.04-0.04-0.05-0.08-0.05h-1.44
				c-0.04,0-0.07,0.01-0.08,0.05l-0.3,1.08c-0.01,0.04-0.04,0.06-0.08,0.06h-0.46c-0.07,0-0.1-0.04-0.08-0.1l1.49-4.88
				c0.01-0.04,0.04-0.06,0.08-0.06h0.37c0.04,0,0.07,0.02,0.08,0.06l1.48,4.88C85.16,56.12,85.13,56.16,85.06,56.16z M83.51,52.55
				c-0.07-0.29-0.11-0.58-0.11-0.58h-0.02c0,0-0.04,0.28-0.12,0.58l-0.48,1.78c-0.02,0.06,0.01,0.1,0.08,0.1h1.03
				c0.07,0,0.1-0.05,0.08-0.1L83.51,52.55z"/>
			<path class="st3" d="M89.68,56.16h-0.46c-0.06,0-0.08-0.02-0.08-0.08v-1.65c0-0.76,0.03-1.45,0.07-1.86l-0.03-0.01
				c-0.03,0.12-0.12,0.38-0.2,0.56l-1.01,2.25c-0.02,0.03-0.04,0.05-0.07,0.05h-0.22c-0.03,0-0.06-0.02-0.07-0.05l-1-2.25
				c-0.07-0.16-0.16-0.4-0.2-0.56l-0.03,0.01c0.05,0.42,0.07,1.08,0.07,1.86v1.65c0,0.06-0.02,0.08-0.08,0.08H85.9
				c-0.06,0-0.08-0.02-0.08-0.08v-4.88c0-0.06,0.02-0.08,0.08-0.08h0.44c0.03,0,0.06,0.02,0.07,0.05l1.26,2.95
				c0.02,0.05,0.09,0.26,0.1,0.32h0.02c0.02-0.06,0.09-0.26,0.11-0.32l1.26-2.95c0.02-0.03,0.04-0.05,0.07-0.05h0.44
				c0.06,0,0.08,0.02,0.08,0.08v4.88C89.76,56.14,89.73,56.16,89.68,56.16z"/>
			<path class="st3" d="M94.83,56.16h-0.46c-0.06,0-0.08-0.02-0.08-0.08v-1.65c0-0.76,0.03-1.45,0.07-1.86l-0.03-0.01
				c-0.03,0.12-0.12,0.38-0.2,0.56l-1.01,2.25c-0.02,0.03-0.04,0.05-0.07,0.05h-0.22c-0.03,0-0.06-0.02-0.07-0.05l-1-2.25
				c-0.07-0.16-0.16-0.4-0.2-0.56l-0.03,0.01c0.05,0.42,0.07,1.08,0.07,1.86v1.65c0,0.06-0.02,0.08-0.08,0.08h-0.46
				c-0.06,0-0.08-0.02-0.08-0.08v-4.88c0-0.06,0.02-0.08,0.08-0.08h0.44c0.03,0,0.06,0.02,0.07,0.05l1.26,2.95
				c0.02,0.05,0.09,0.26,0.1,0.32h0.02c0.02-0.06,0.09-0.26,0.11-0.32l1.26-2.95c0.02-0.03,0.04-0.05,0.07-0.05h0.44
				c0.06,0,0.08,0.02,0.08,0.08v4.88C94.91,56.14,94.89,56.16,94.83,56.16z"/>
			<path class="st3" d="M98.88,56.16h-2.67c-0.06,0-0.08-0.02-0.08-0.08v-4.88c0-0.06,0.02-0.08,0.08-0.08h2.67
				c0.06,0,0.08,0.02,0.08,0.08v0.39c0,0.06-0.02,0.08-0.08,0.08h-2.05c-0.06,0-0.08,0.02-0.08,0.08v1.5c0,0.06,0.02,0.08,0.08,0.08
				h1.68c0.06,0,0.08,0.02,0.08,0.08v0.39c0,0.06-0.02,0.08-0.08,0.08h-1.68c-0.06,0-0.08,0.02-0.08,0.08v1.57
				c0,0.06,0.02,0.08,0.08,0.08h2.05c0.06,0,0.08,0.02,0.08,0.08v0.39C98.96,56.14,98.93,56.16,98.88,56.16z"/>
			<path class="st3" d="M102.84,56.16h-0.53c-0.03,0-0.06-0.02-0.07-0.06l-0.75-2.17c-0.01-0.03-0.03-0.05-0.06-0.05h-0.9
				c-0.06,0-0.08,0.02-0.08,0.08v2.12c0,0.06-0.02,0.08-0.08,0.08H99.9c-0.06,0-0.08-0.02-0.08-0.08v-4.88
				c0-0.06,0.02-0.08,0.08-0.08h1.58c0.86,0,1.42,0.55,1.42,1.42v0.08c0,0.42-0.38,0.92-0.73,1.07c-0.04,0.02-0.06,0.05-0.04,0.09
				l0.79,2.28C102.93,56.12,102.91,56.16,102.84,56.16z M102.26,52.46c0-0.42-0.35-0.78-0.79-0.78h-0.95
				c-0.06,0-0.08,0.02-0.08,0.08v1.5c0,0.06,0.02,0.08,0.08,0.08h0.95c0.43,0,0.79-0.35,0.79-0.79V52.46z"/>
			<path class="st3" d="M105.08,56.24h-0.34c-0.42,0-0.7-0.1-0.91-0.27c-0.15-0.12-0.26-0.27-0.35-0.44
				c-0.02-0.05-0.02-0.09,0.03-0.11l0.42-0.22c0.05-0.02,0.09-0.01,0.11,0.04c0.16,0.3,0.43,0.45,0.7,0.45h0.34
				c0.43,0,0.79-0.34,0.79-0.78c0-0.54-0.49-0.77-1.02-1.01c-0.62-0.28-1.31-0.59-1.31-1.52c0-0.77,0.57-1.33,1.42-1.33h0.13
				c0.47,0,0.79,0.14,1.01,0.35c0.11,0.1,0.19,0.22,0.26,0.35c0.02,0.05,0.01,0.09-0.04,0.11l-0.42,0.21
				c-0.04,0.02-0.07,0.01-0.1-0.03c-0.17-0.29-0.44-0.44-0.71-0.44h-0.13c-0.48,0-0.78,0.32-0.78,0.78c0,0.48,0.52,0.7,1.09,0.95
				c0.6,0.27,1.24,0.63,1.24,1.58C106.49,55.69,105.95,56.24,105.08,56.24z"/>
			<path class="st3" d="M107.63,56.26c-0.22,0-0.41-0.18-0.41-0.42c0-0.22,0.18-0.42,0.41-0.42c0.23,0,0.42,0.18,0.42,0.42
				C108.06,56.07,107.87,56.26,107.63,56.26z"/>
			<path class="st3" d="M112.06,53.88h-0.95c-0.06,0-0.08,0.02-0.08,0.08v2.12c0,0.06-0.02,0.08-0.08,0.08h-0.46
				c-0.06,0-0.08-0.02-0.08-0.08v-4.88c0-0.06,0.02-0.08,0.08-0.08h1.58c0.86,0,1.42,0.56,1.42,1.42
				C113.48,53.3,112.93,53.88,112.06,53.88z M112.86,52.46c0-0.42-0.35-0.78-0.79-0.78h-0.95c-0.06,0-0.08,0.02-0.08,0.08v1.5
				c0,0.06,0.02,0.08,0.08,0.08h0.95c0.43,0,0.79-0.35,0.79-0.79V52.46z"/>
			<path class="st3" d="M115.69,56.24h-0.25c-0.86,0-1.42-0.54-1.42-1.33v-2.53c0-0.78,0.55-1.33,1.42-1.33h0.25
				c0.86,0,1.42,0.54,1.42,1.33v2.53C117.1,55.69,116.55,56.24,115.69,56.24z M116.47,52.38c0-0.43-0.35-0.78-0.78-0.78h-0.25
				c-0.43,0-0.78,0.34-0.78,0.78v2.53c0,0.42,0.34,0.78,0.78,0.78h0.25c0.42,0,0.78-0.35,0.78-0.78V52.38z"/>
			<path class="st3" d="M121.77,56.1c-0.01,0.04-0.04,0.06-0.08,0.06h-0.36c-0.04,0-0.07-0.02-0.08-0.06l-0.89-3.03
				c-0.05-0.17-0.08-0.35-0.09-0.43h-0.02c-0.01,0.08-0.05,0.26-0.1,0.43l-0.9,3.03c-0.01,0.04-0.04,0.06-0.08,0.06h-0.36
				c-0.04,0-0.07-0.02-0.08-0.06l-1.06-4.88c-0.02-0.06,0.02-0.1,0.08-0.1h0.52c0.04,0,0.07,0.02,0.08,0.06l0.62,3.26
				c0.04,0.22,0.07,0.4,0.08,0.52h0.02c0.02-0.12,0.06-0.3,0.11-0.51l0.9-3.29c0.01-0.04,0.04-0.06,0.08-0.06h0.18
				c0.04,0,0.07,0.02,0.08,0.06l0.9,3.24c0.05,0.18,0.09,0.37,0.11,0.54h0.02c0.02-0.2,0.06-0.42,0.08-0.55l0.59-3.21
				c0.01-0.04,0.04-0.06,0.08-0.06h0.52c0.06,0,0.1,0.03,0.08,0.1L121.77,56.1z"/>
			<path class="st3" d="M126.29,56.16h-2.67c-0.06,0-0.08-0.02-0.08-0.08v-4.88c0-0.06,0.02-0.08,0.08-0.08h2.67
				c0.06,0,0.08,0.02,0.08,0.08v0.39c0,0.06-0.02,0.08-0.08,0.08h-2.05c-0.06,0-0.08,0.02-0.08,0.08v1.5c0,0.06,0.02,0.08,0.08,0.08
				h1.68c0.06,0,0.08,0.02,0.08,0.08v0.39c0,0.06-0.02,0.08-0.08,0.08h-1.68c-0.06,0-0.08,0.02-0.08,0.08v1.57
				c0,0.06,0.02,0.08,0.08,0.08h2.05c0.06,0,0.08,0.02,0.08,0.08v0.39C126.38,56.14,126.35,56.16,126.29,56.16z"/>
			<path class="st3" d="M130.25,56.16h-0.53c-0.03,0-0.06-0.02-0.07-0.06l-0.75-2.17c-0.01-0.03-0.03-0.05-0.06-0.05h-0.9
				c-0.06,0-0.08,0.02-0.08,0.08v2.12c0,0.06-0.02,0.08-0.08,0.08h-0.46c-0.06,0-0.08-0.02-0.08-0.08v-4.88
				c0-0.06,0.02-0.08,0.08-0.08h1.58c0.86,0,1.42,0.55,1.42,1.42v0.08c0,0.42-0.38,0.92-0.73,1.07c-0.04,0.02-0.06,0.05-0.04,0.09
				l0.79,2.28C130.35,56.12,130.33,56.16,130.25,56.16z M129.68,52.46c0-0.42-0.35-0.78-0.79-0.78h-0.95
				c-0.06,0-0.08,0.02-0.08,0.08v1.5c0,0.06,0.02,0.08,0.08,0.08h0.95c0.43,0,0.79-0.35,0.79-0.79V52.46z"/>
			<path class="st3" d="M134,56.16h-2.67c-0.06,0-0.08-0.02-0.08-0.08v-4.88c0-0.06,0.02-0.08,0.08-0.08H134
				c0.06,0,0.08,0.02,0.08,0.08v0.39c0,0.06-0.02,0.08-0.08,0.08h-2.05c-0.06,0-0.08,0.02-0.08,0.08v1.5c0,0.06,0.02,0.08,0.08,0.08
				h1.68c0.06,0,0.08,0.02,0.08,0.08v0.39c0,0.06-0.02,0.08-0.08,0.08h-1.68c-0.06,0-0.08,0.02-0.08,0.08v1.57
				c0,0.06,0.02,0.08,0.08,0.08H134c0.06,0,0.08,0.02,0.08,0.08v0.39C134.08,56.14,134.05,56.16,134,56.16z"/>
			<path class="st3" d="M136.59,56.16h-1.58c-0.06,0-0.08-0.02-0.08-0.08v-4.88c0-0.06,0.02-0.08,0.08-0.08h1.58
				c0.86,0,1.42,0.55,1.42,1.42v2.2C138.01,55.61,137.46,56.16,136.59,56.16z M137.38,52.46c0-0.42-0.35-0.78-0.79-0.78h-0.95
				c-0.06,0-0.08,0.02-0.08,0.08v3.77c0,0.06,0.02,0.08,0.08,0.08h0.95c0.43,0,0.79-0.34,0.79-0.78V52.46z"/>
			<path class="st3" d="M142.16,56.16h-1.58c-0.06,0-0.08-0.02-0.08-0.08v-4.88c0-0.06,0.02-0.08,0.08-0.08h1.58
				c0.86,0,1.42,0.55,1.42,1.42v0.08c0,0.31-0.25,0.74-0.54,0.92c-0.07,0.04-0.07,0.1-0.01,0.14c0.27,0.17,0.55,0.57,0.55,0.96v0.12
				C143.57,55.62,143.02,56.16,142.16,56.16z M142.95,52.46c0-0.42-0.35-0.78-0.79-0.78h-0.95c-0.06,0-0.08,0.02-0.08,0.08v1.5
				c0,0.06,0.02,0.08,0.08,0.08h0.95c0.43,0,0.79-0.35,0.79-0.79V52.46z M142.95,54.66c0-0.42-0.35-0.78-0.79-0.78h-0.95
				c-0.06,0-0.08,0.02-0.08,0.08v1.57c0,0.06,0.02,0.08,0.08,0.08h0.95c0.43,0,0.79-0.34,0.79-0.78V54.66z"/>
			<path class="st3" d="M145.88,53.84v2.24c0,0.06-0.02,0.08-0.08,0.08h-0.47c-0.06,0-0.08-0.02-0.08-0.08v-2.24l-1.38-2.6
				c-0.04-0.07-0.01-0.12,0.07-0.12h0.56c0.03,0,0.06,0.02,0.07,0.05l0.93,1.92c0.04,0.08,0.1,0.08,0.14,0l0.93-1.92
				c0.02-0.02,0.04-0.05,0.07-0.05h0.55c0.08,0,0.11,0.05,0.07,0.12L145.88,53.84z"/>
			<path class="st3" d="M150.61,56.24h-0.34c-0.42,0-0.7-0.1-0.91-0.27c-0.15-0.12-0.26-0.27-0.35-0.44
				c-0.02-0.05-0.02-0.09,0.03-0.11l0.42-0.22c0.05-0.02,0.09-0.01,0.11,0.04c0.16,0.3,0.43,0.45,0.7,0.45h0.34
				c0.43,0,0.79-0.34,0.79-0.78c0-0.54-0.49-0.77-1.02-1.01c-0.62-0.28-1.31-0.59-1.31-1.52c0-0.77,0.57-1.33,1.42-1.33h0.13
				c0.47,0,0.79,0.14,1.01,0.35c0.11,0.1,0.19,0.22,0.26,0.35c0.02,0.05,0.01,0.09-0.04,0.11l-0.42,0.21
				c-0.04,0.02-0.07,0.01-0.1-0.03c-0.17-0.29-0.44-0.44-0.71-0.44h-0.13c-0.48,0-0.78,0.32-0.78,0.78c0,0.48,0.52,0.7,1.09,0.95
				c0.6,0.27,1.24,0.63,1.24,1.58C152.02,55.69,151.48,56.24,150.61,56.24z"/>
			<path class="st3" d="M154.56,56.24h-0.25c-0.86,0-1.42-0.54-1.42-1.33v-2.53c0-0.78,0.55-1.33,1.42-1.33h0.25
				c0.86,0,1.42,0.54,1.42,1.33v2.53C155.97,55.69,155.42,56.24,154.56,56.24z M155.34,52.38c0-0.43-0.35-0.78-0.78-0.78h-0.25
				c-0.43,0-0.78,0.34-0.78,0.78v2.53c0,0.42,0.34,0.78,0.78,0.78h0.25c0.42,0,0.78-0.35,0.78-0.78V52.38z"/>
			<path class="st3" d="M158.73,53.88h-0.95c-0.06,0-0.08,0.02-0.08,0.08v2.12c0,0.06-0.02,0.08-0.08,0.08h-0.46
				c-0.06,0-0.08-0.02-0.08-0.08v-4.88c0-0.06,0.02-0.08,0.08-0.08h1.58c0.86,0,1.42,0.56,1.42,1.42
				C160.14,53.3,159.59,53.88,158.73,53.88z M159.52,52.46c0-0.42-0.35-0.78-0.79-0.78h-0.95c-0.06,0-0.08,0.02-0.08,0.08v1.5
				c0,0.06,0.02,0.08,0.08,0.08h0.95c0.43,0,0.79-0.35,0.79-0.79V52.46z"/>
			<path class="st3" d="M163.82,56.16h-0.53c-0.03,0-0.06-0.02-0.07-0.06l-0.75-2.17c-0.01-0.03-0.03-0.05-0.06-0.05h-0.9
				c-0.06,0-0.08,0.02-0.08,0.08v2.12c0,0.06-0.02,0.08-0.08,0.08h-0.46c-0.06,0-0.08-0.02-0.08-0.08v-4.88
				c0-0.06,0.02-0.08,0.08-0.08h1.58c0.86,0,1.42,0.55,1.42,1.42v0.08c0,0.42-0.38,0.92-0.73,1.07c-0.04,0.02-0.06,0.05-0.04,0.09
				l0.79,2.28C163.92,56.12,163.89,56.16,163.82,56.16z M163.25,52.46c0-0.42-0.35-0.78-0.79-0.78h-0.95
				c-0.06,0-0.08,0.02-0.08,0.08v1.5c0,0.06,0.02,0.08,0.08,0.08h0.95c0.43,0,0.79-0.35,0.79-0.79V52.46z"/>
			<path class="st3" d="M167.69,56.16h-0.5c-0.04,0-0.07-0.02-0.08-0.06l-0.3-1.08c-0.01-0.04-0.04-0.05-0.08-0.05h-1.44
				c-0.04,0-0.07,0.01-0.08,0.05l-0.3,1.08c-0.01,0.04-0.04,0.06-0.08,0.06h-0.46c-0.07,0-0.1-0.04-0.08-0.1l1.49-4.88
				c0.01-0.04,0.04-0.06,0.08-0.06h0.37c0.04,0,0.07,0.02,0.08,0.06l1.48,4.88C167.79,56.12,167.77,56.16,167.69,56.16z
				 M166.14,52.55c-0.07-0.29-0.11-0.58-0.11-0.58h-0.02c0,0-0.04,0.28-0.12,0.58l-0.48,1.78c-0.02,0.06,0.01,0.1,0.08,0.1h1.03
				c0.07,0,0.1-0.05,0.08-0.1L166.14,52.55z"/>
			<path class="st3" d="M171.23,56.24h-0.34c-0.42,0-0.7-0.1-0.91-0.27c-0.15-0.12-0.26-0.27-0.35-0.44
				c-0.02-0.05-0.02-0.09,0.03-0.11l0.42-0.22c0.05-0.02,0.09-0.01,0.11,0.04c0.16,0.3,0.43,0.45,0.7,0.45h0.34
				c0.43,0,0.79-0.34,0.79-0.78c0-0.54-0.49-0.77-1.02-1.01c-0.62-0.28-1.31-0.59-1.31-1.52c0-0.77,0.57-1.33,1.42-1.33h0.13
				c0.47,0,0.79,0.14,1.01,0.35c0.11,0.1,0.19,0.22,0.26,0.35c0.02,0.05,0.01,0.09-0.04,0.11l-0.42,0.21
				c-0.04,0.02-0.07,0.01-0.1-0.03c-0.17-0.29-0.44-0.44-0.71-0.44h-0.13c-0.48,0-0.78,0.32-0.78,0.78c0,0.48,0.52,0.7,1.09,0.95
				c0.6,0.27,1.24,0.63,1.24,1.58C172.65,55.69,172.1,56.24,171.23,56.24z"/>
			<path class="st3" d="M175.75,51.68h-0.94c-0.06,0-0.08,0.02-0.08,0.08v4.33c0,0.06-0.02,0.08-0.08,0.08h-0.47
				c-0.06,0-0.08-0.02-0.08-0.08v-4.33c0-0.06-0.02-0.08-0.08-0.08h-0.94c-0.06,0-0.08-0.02-0.08-0.08v-0.39
				c0-0.06,0.02-0.08,0.08-0.08h2.68c0.06,0,0.08,0.02,0.08,0.08v0.39C175.83,51.65,175.81,51.68,175.75,51.68z"/>
			<path class="st3" d="M179.24,56.16h-2.67c-0.06,0-0.08-0.02-0.08-0.08v-4.88c0-0.06,0.02-0.08,0.08-0.08h2.67
				c0.06,0,0.08,0.02,0.08,0.08v0.39c0,0.06-0.02,0.08-0.08,0.08h-2.05c-0.06,0-0.08,0.02-0.08,0.08v1.5c0,0.06,0.02,0.08,0.08,0.08
				h1.68c0.06,0,0.08,0.02,0.08,0.08v0.39c0,0.06-0.02,0.08-0.08,0.08h-1.68c-0.06,0-0.08,0.02-0.08,0.08v1.57
				c0,0.06,0.02,0.08,0.08,0.08h2.05c0.06,0,0.08,0.02,0.08,0.08v0.39C179.32,56.14,179.29,56.16,179.24,56.16z"/>
			<path class="st3" d="M183.2,56.16h-0.53c-0.03,0-0.06-0.02-0.07-0.06l-0.75-2.17c-0.01-0.03-0.03-0.05-0.06-0.05h-0.9
				c-0.06,0-0.08,0.02-0.08,0.08v2.12c0,0.06-0.02,0.08-0.08,0.08h-0.46c-0.06,0-0.08-0.02-0.08-0.08v-4.88
				c0-0.06,0.02-0.08,0.08-0.08h1.58c0.86,0,1.42,0.55,1.42,1.42v0.08c0,0.42-0.38,0.92-0.73,1.07c-0.04,0.02-0.06,0.05-0.04,0.09
				l0.79,2.28C183.29,56.12,183.27,56.16,183.2,56.16z M182.62,52.46c0-0.42-0.35-0.78-0.79-0.78h-0.95c-0.06,0-0.08,0.02-0.08,0.08
				v1.5c0,0.06,0.02,0.08,0.08,0.08h0.95c0.43,0,0.79-0.35,0.79-0.79V52.46z"/>
			<path class="st3" d="M184.74,56.16h-0.46c-0.06,0-0.08-0.02-0.08-0.08v-4.88c0-0.06,0.02-0.08,0.08-0.08h0.46
				c0.06,0,0.08,0.02,0.08,0.08v4.88C184.82,56.14,184.79,56.16,184.74,56.16z"/>
			<path class="st3" d="M188.91,56.16h-0.5c-0.04,0-0.07-0.02-0.08-0.06l-0.3-1.08c-0.01-0.04-0.04-0.05-0.08-0.05h-1.44
				c-0.04,0-0.07,0.01-0.08,0.05l-0.3,1.08c-0.01,0.04-0.04,0.06-0.08,0.06h-0.46c-0.07,0-0.1-0.04-0.08-0.1l1.49-4.88
				c0.01-0.04,0.04-0.06,0.08-0.06h0.37c0.04,0,0.07,0.02,0.08,0.06l1.48,4.88C189.01,56.12,188.98,56.16,188.91,56.16z
				 M187.36,52.55c-0.07-0.29-0.11-0.58-0.11-0.58h-0.02c0,0-0.04,0.28-0.12,0.58l-0.48,1.78c-0.02,0.06,0.01,0.1,0.08,0.1h1.03
				c0.07,0,0.1-0.05,0.08-0.1L187.36,52.55z"/>
		</g>
	</g>
</g>
</svg>
