<?xml version="1.0" encoding="UTF-8" standalone="no"?>
<!-- Created with Inkscape (http://www.inkscape.org/) -->

<svg
   width="201.80991mm"
   height="356.79584mm"
   viewBox="0 0 201.80991 356.79583"
   version="1.1"
   id="svg13973"
   sodipodi:docname="back.svg"
   inkscape:version="1.1 (c4e8f9e, 2021-05-24)"
   xmlns:inkscape="http://www.inkscape.org/namespaces/inkscape"
   xmlns:sodipodi="http://sodipodi.sourceforge.net/DTD/sodipodi-0.dtd"
   xmlns:xlink="http://www.w3.org/1999/xlink"
   xmlns="http://www.w3.org/2000/svg"
   xmlns:svg="http://www.w3.org/2000/svg">
  <sodipodi:namedview
     id="namedview13975"
     pagecolor="#6c6c6c"
     bordercolor="#999999"
     borderopacity="1"
     inkscape:pageshadow="0"
     inkscape:pageopacity="0"
     inkscape:pagecheckerboard="true"
     inkscape:document-units="mm"
     showgrid="false"
     fit-margin-top="0"
     fit-margin-left="0"
     fit-margin-right="0"
     fit-margin-bottom="0"
     inkscape:zoom="1.758393"
     inkscape:cx="379.03928"
     inkscape:cy="1405.5447"
     inkscape:window-width="1536"
     inkscape:window-height="915"
     inkscape:window-x="0"
     inkscape:window-y="23"
     inkscape:window-maximized="1"
     inkscape:current-layer="layer1" />
  <defs
     id="defs13970"><rect
   x="11.121993"
   y="9.7317438"
   width="777.14923"
   height="365.6355"
   id="rect17151" />
<path
   id="a"
   d="m 0,0.362 h 128.749 v 28.4 H 0 Z" />
<path
   id="c"
   d="M 0.828,0.284 H 6.23 V 8 H 0.828 Z" />
<mask
   id="b"
   fill="#ffffff">
  <use
     xlink:href="#a"
     id="use47047"
     x="0"
     y="0"
     width="100%"
     height="100%" />
</mask>

	
	
		
		
		
		
		
		
		
		
		
		
		
		
	</defs>
  <g
     inkscape:label="Layer 1"
     inkscape:groupmode="layer"
     id="layer1"
     transform="translate(-4.0950448)">
    <path
       d="m 21.121238,0.58208342 c 0.05292,-0.21166667 -0.05292,-0.3175 -0.264583,-0.3175 h -1.719792 c -0.132292,0 -0.238125,0.079375 -0.264583,0.21166666 L 16.914363,11.086042 c -0.07938,0.423333 -0.185208,1.164166 -0.264583,1.825625 H 16.59686 C 16.517488,12.329583 16.385196,11.721042 16.226446,11.1125 L 13.236655,0.39687508 C 13.210196,0.26458342 13.104363,0.21166675 12.972071,0.21166675 H 12.36353 c -0.132292,0 -0.238125,0.0529167 -0.264584,0.18520833 L 9.1091547,11.297708 c -0.1852083,0.714375 -0.3175,1.296459 -0.3704166,1.693334 H 8.6858214 C 8.6593631,12.594167 8.5535297,11.985625 8.4212381,11.27125 L 6.3574881,0.47625008 C 6.3310298,0.34395842 6.2251964,0.26458342 6.0929048,0.26458342 H 4.3731131 c -0.2116666,0 -0.3175,0.10583333 -0.2645833,0.3175 L 7.6010297,16.721667 c 0.026458,0.132291 0.1322917,0.211666 0.2645834,0.211666 h 1.190625 c 0.1322916,0 0.238125,-0.05292 0.2645833,-0.185208 L 12.284155,6.7204167 c 0.15875,-0.555625 0.291041,-1.1641667 0.3175,-1.42875 h 0.05292 c 0.02646,0.2645833 0.132292,0.873125 0.291042,1.42875 l 2.936875,10.0277083 c 0.02646,0.132292 0.132292,0.185208 0.264583,0.185208 H 17.3377 c 0.132292,0 0.238125,-0.07938 0.264584,-0.211666 z"
       style="font-size:100px;line-height:1;font-family:ConduitITCStd;-inkscape-font-specification:ConduitITCStd;text-align:center;text-anchor:middle;white-space:pre;fill:#ffffff;stroke-width:0.264583"
       id="path49161" />
    <path
       d="M 25.512494,16.66875 V 0.52916675 c 0,-0.18520833 -0.07937,-0.26458333 -0.264583,-0.26458333 h -1.534583 c -0.185209,0 -0.264584,0.079375 -0.264584,0.26458333 V 16.66875 c 0,0.185208 0.07937,0.264583 0.264584,0.264583 h 1.534583 c 0.185208,0 0.264583,-0.07938 0.264583,-0.264583 z"
       style="font-size:100px;line-height:1;font-family:ConduitITCStd;-inkscape-font-specification:ConduitITCStd;text-align:center;text-anchor:middle;white-space:pre;fill:#ffffff;stroke-width:0.264583"
       id="path49163" />
    <path
       d="m 38.912812,16.66875 v -1.296458 c 0,-0.185209 -0.07937,-0.264584 -0.264583,-0.264584 h -6.773333 c -0.185209,0 -0.264584,-0.07938 -0.264584,-0.264583 V 0.52916675 c 0,-0.18520833 -0.07937,-0.26458333 -0.264583,-0.26458333 h -1.534583 c -0.185209,0 -0.264584,0.079375 -0.264584,0.26458333 V 16.66875 c 0,0.185208 0.07937,0.264583 0.264584,0.264583 h 8.837083 c 0.185208,0 0.264583,-0.07938 0.264583,-0.264583 z"
       style="font-size:100px;line-height:1;font-family:ConduitITCStd;-inkscape-font-specification:ConduitITCStd;text-align:center;text-anchor:middle;white-space:pre;fill:#ffffff;stroke-width:0.264583"
       id="path49165" />
    <path
       d="m 50.436658,16.66875 v -1.296458 c 0,-0.185209 -0.07937,-0.264584 -0.264583,-0.264584 h -6.773334 c -0.185208,0 -0.264583,-0.07938 -0.264583,-0.264583 V 0.52916675 c 0,-0.18520833 -0.07937,-0.26458333 -0.264583,-0.26458333 h -1.534583 c -0.185209,0 -0.264584,0.079375 -0.264584,0.26458333 V 16.66875 c 0,0.185208 0.07937,0.264583 0.264584,0.264583 h 8.837083 c 0.185208,0 0.264583,-0.07938 0.264583,-0.264583 z"
       style="font-size:100px;line-height:1;font-family:ConduitITCStd;-inkscape-font-specification:ConduitITCStd;text-align:center;text-anchor:middle;white-space:pre;fill:#ffffff;stroke-width:0.264583"
       id="path49167" />
    <path
       d="M 122.62863,1.8256251 V 0.52916675 c 0,-0.18520833 -0.0794,-0.26458333 -0.26458,-0.26458333 h -8.83709 c -0.1852,0 -0.26458,0.079375 -0.26458,0.26458333 V 16.66875 c 0,0.185208 0.0794,0.264583 0.26458,0.264583 h 1.53459 c 0.18521,0 0.26458,-0.07938 0.26458,-0.264583 V 9.6572916 c 0,-0.1852083 0.0794,-0.2645833 0.26458,-0.2645833 h 5.55625 c 0.18521,0 0.26459,-0.079375 0.26459,-0.2645833 V 7.8316667 c 0,-0.1852084 -0.0794,-0.2645834 -0.26459,-0.2645834 h -5.55625 c -0.1852,0 -0.26458,-0.079375 -0.26458,-0.2645833 V 2.3547917 c 0,-0.1852083 0.0794,-0.2645833 0.26458,-0.2645833 h 6.77334 c 0.18521,0 0.26458,-0.079375 0.26458,-0.2645833 z"
       style="font-size:100px;line-height:1;font-family:ConduitITCStd;-inkscape-font-specification:ConduitITCStd;text-align:center;text-anchor:middle;white-space:pre;fill:#ffffff;stroke-width:0.264583"
       id="path49177" />
    <path
       d="M 134.49892,12.779375 V 4.4185417 C 134.49892,1.7991667 132.67329,8.9281821e-8 129.81579,8.9281821e-8 h -0.82021 C 126.13808,8.9281821e-8 124.31246,1.8256251 124.31246,4.4185417 v 8.3608333 c 0,2.619375 1.82562,4.418542 4.68312,4.418542 h 0.82021 c 2.8575,0 4.68313,-1.825625 4.68313,-4.418542 z m -2.09021,0 c 0,1.42875 -1.19063,2.592917 -2.59292,2.592917 h -0.82021 c -1.45521,0 -2.59291,-1.190625 -2.59291,-2.592917 V 4.4185417 c 0,-1.4552083 1.16416,-2.5929166 2.59291,-2.5929166 h 0.82021 c 1.42875,0 2.59292,1.1641666 2.59292,2.5929166 z"
       style="font-size:100px;line-height:1;font-family:ConduitITCStd;-inkscape-font-specification:ConduitITCStd;text-align:center;text-anchor:middle;white-space:pre;fill:#ffffff;stroke-width:0.264583"
       id="path49179" />
    <path
       d="M 148.35812,16.589375 145.73875,9.04875 c -0.0529,-0.1322917 0,-0.238125 0.13229,-0.2910417 C 147.03521,8.255 148.27875,6.588125 148.27875,5.2122917 V 4.9477084 c 0,-2.8575 -1.82563,-4.68312498 -4.68313,-4.68312498 h -5.21229 c -0.18521,0 -0.26458,0.079375 -0.26458,0.26458333 V 16.66875 c 0,0.185208 0.0794,0.264583 0.26458,0.264583 h 1.53458 c 0.18521,0 0.26459,-0.07938 0.26459,-0.264583 V 9.6572916 c 0,-0.1852083 0.0794,-0.2645833 0.26458,-0.2645833 h 2.98979 c 0.10584,0 0.18521,0.052917 0.21167,0.15875 l 2.48708,7.1966667 c 0.0265,0.105833 0.13229,0.185208 0.23813,0.185208 H 148.12 c 0.23812,0 0.3175,-0.132291 0.23812,-0.343958 z M 146.215,4.9477084 c 0,1.4552083 -1.19063,2.6193749 -2.61938,2.6193749 h -3.14854 c -0.18521,0 -0.26458,-0.079375 -0.26458,-0.2645833 V 2.3547917 c 0,-0.1852083 0.0794,-0.2645833 0.26458,-0.2645833 h 3.14854 c 1.45521,0 2.61938,1.190625 2.61938,2.5929166 z"
       style="font-size:100px;line-height:1;font-family:ConduitITCStd;-inkscape-font-specification:ConduitITCStd;text-align:center;text-anchor:middle;white-space:pre;fill:#ffffff;stroke-width:0.264583"
       id="path49181" />
    <path
       d="m 166.21047,4.9477084 c 0,-2.8310417 -1.82563,-4.68312498 -4.68313,-4.68312498 h -5.21229 c -0.18521,0 -0.26458,0.079375 -0.26458,0.26458333 V 16.66875 c 0,0.185208 0.0794,0.264583 0.26458,0.264583 h 1.53458 c 0.18521,0 0.26459,-0.07938 0.26459,-0.264583 V 9.6572916 c 0,-0.1852083 0.0794,-0.2645833 0.26458,-0.2645833 h 3.14854 c 2.8575,0 4.68313,-1.9314583 4.68313,-4.4449999 z m -2.06375,0 c 0,1.4552083 -1.19063,2.6193749 -2.61938,2.6193749 h -3.14854 c -0.18521,0 -0.26458,-0.079375 -0.26458,-0.2645833 V 2.3547917 c 0,-0.1852083 0.0794,-0.2645833 0.26458,-0.2645833 h 3.14854 c 1.45521,0 2.61938,1.190625 2.61938,2.5929166 z"
       style="font-size:100px;line-height:1;font-family:ConduitITCStd;-inkscape-font-specification:ConduitITCStd;text-align:center;text-anchor:middle;white-space:pre;fill:#ffffff;stroke-width:0.264583"
       id="path49183" />
    <path
       d="M 170.46488,16.66875 V 0.52916675 c 0,-0.18520833 -0.0794,-0.26458333 -0.26458,-0.26458333 h -1.53458 c -0.18521,0 -0.26459,0.079375 -0.26459,0.26458333 V 16.66875 c 0,0.185208 0.0794,0.264583 0.26459,0.264583 h 1.53458 c 0.18521,0 0.26458,-0.07938 0.26458,-0.264583 z"
       style="font-size:100px;line-height:1;font-family:ConduitITCStd;-inkscape-font-specification:ConduitITCStd;text-align:center;text-anchor:middle;white-space:pre;fill:#ffffff;stroke-width:0.264583"
       id="path49185" />
    <path
       d="m 182.75395,16.66875 v -1.296458 c 0,-0.185209 -0.0794,-0.264584 -0.26458,-0.264584 h -6.11187 c -0.23813,0 -0.34396,-0.15875 -0.23813,-0.370416 L 182.41,0.63500008 c 0.10583,-0.21166666 0,-0.37041666 -0.23813,-0.37041666 h -8.51958 c -0.18521,0 -0.26458,0.079375 -0.26458,0.26458333 V 1.8256251 c 0,0.1852083 0.0794,0.2645833 0.26458,0.2645833 h 5.47687 c 0.23813,0 0.34396,0.15875 0.23813,0.3704167 l -6.21771,14.1022919 c -0.10583,0.211666 0,0.370416 0.23813,0.370416 h 9.10166 c 0.18521,0 0.26458,-0.07938 0.26458,-0.264583 z"
       style="font-size:100px;line-height:1;font-family:ConduitITCStd;-inkscape-font-specification:ConduitITCStd;text-align:center;text-anchor:middle;white-space:pre;fill:#ffffff;stroke-width:0.264583"
       id="path49187" />
    <path
       d="m 193.55433,16.66875 v -1.296458 c 0,-0.185209 -0.0794,-0.264584 -0.26458,-0.264584 h -6.11188 c -0.23812,0 -0.34396,-0.15875 -0.23812,-0.370416 l 6.27062,-14.10229192 c 0.10583,-0.21166666 0,-0.37041666 -0.23812,-0.37041666 h -8.51959 c -0.18521,0 -0.26458,0.079375 -0.26458,0.26458333 V 1.8256251 c 0,0.1852083 0.0794,0.2645833 0.26458,0.2645833 h 5.47688 c 0.23812,0 0.34396,0.15875 0.23812,0.3704167 l -6.21771,14.1022919 c -0.10583,0.211666 0,0.370416 0.23813,0.370416 h 9.10167 c 0.1852,0 0.26458,-0.07938 0.26458,-0.264583 z"
       style="font-size:100px;line-height:1;font-family:ConduitITCStd;-inkscape-font-specification:ConduitITCStd;text-align:center;text-anchor:middle;white-space:pre;fill:#ffffff;stroke-width:0.264583"
       id="path49189" />
    <path
       d="m 205.88929,16.589375 -4.8948,-16.13958325 c -0.0265,-0.13229166 -0.13229,-0.18520833 -0.26458,-0.18520833 h -1.21708 c -0.13229,0 -0.23813,0.0529167 -0.26459,0.18520833 L 194.32699,16.589375 c -0.0529,0.211667 0.0265,0.343958 0.26459,0.343958 h 1.53458 c 0.13229,0 0.23813,-0.05292 0.26458,-0.185208 l 1.00542,-3.571875 c 0.0265,-0.132292 0.13229,-0.15875 0.26458,-0.15875 h 4.7625 c 0.1323,0 0.23813,0.02646 0.26459,0.15875 l 1.00541,3.571875 c 0.0265,0.132292 0.1323,0.185208 0.26459,0.185208 h 1.66687 c 0.23813,0 0.3175,-0.132291 0.26459,-0.343958 z m -3.88938,-5.741458 c 0.0529,0.185208 -0.0265,0.343958 -0.26458,0.343958 h -3.41313 c -0.23812,0 -0.3175,-0.15875 -0.26458,-0.343958 l 1.5875,-5.8737503 c 0.26458,-0.9789583 0.39687,-1.905 0.39687,-1.905 h 0.0794 c 0,0 0.13229,0.9525 0.37042,1.905 z"
       style="font-size:100px;line-height:1;font-family:ConduitITCStd;-inkscape-font-specification:ConduitITCStd;text-align:center;text-anchor:middle;white-space:pre;fill:#ffffff;stroke-width:0.264583"
       id="path49191" />
    <path
       d="M 25.228481,44.38354 20.333689,28.243957 c -0.02646,-0.132291 -0.132291,-0.185208 -0.264583,-0.185208 h -1.217083 c -0.132292,0 -0.238125,0.05292 -0.264584,0.185208 l -4.92125,16.139583 c -0.05292,0.211667 0.02646,0.343959 0.264584,0.343959 h 1.534583 c 0.132292,0 0.238125,-0.05292 0.264583,-0.185209 l 1.005417,-3.571875 c 0.02646,-0.132291 0.132292,-0.15875 0.264583,-0.15875 h 4.7625 c 0.132292,0 0.238125,0.02646 0.264584,0.15875 l 1.005416,3.571875 c 0.02646,0.132292 0.132292,0.185209 0.264584,0.185209 h 1.666874 c 0.238125,0 0.3175,-0.132292 0.264584,-0.343959 z m -3.889375,-5.741458 c 0.05292,0.185209 -0.02646,0.343958 -0.264583,0.343958 h -3.413125 c -0.238125,0 -0.3175,-0.158749 -0.264584,-0.343958 l 1.5875,-5.87375 c 0.264584,-0.978958 0.396875,-1.905 0.396875,-1.905 h 0.07938 c 0,0 0.132292,0.9525 0.370417,1.905 z"
       style="font-size:100px;line-height:1;font-family:ConduitITCStd;-inkscape-font-specification:ConduitITCStd;text-align:center;text-anchor:middle;white-space:pre;fill:#ffffff;stroke-width:0.264583"
       id="path49193" />
    <path
       d="M 38.062838,44.462915 V 28.323332 c 0,-0.185208 -0.07937,-0.264583 -0.264583,-0.264583 h -1.561042 c -0.185208,0 -0.264583,0.07938 -0.264583,0.264583 v 5.688542 c 0,2.090208 0.02646,5.265208 0.05292,6.35 H 35.94617 C 35.840336,40.017915 35.602211,39.46229 35.46992,39.224165 l -6.0325,-11.033124 c -0.05292,-0.07937 -0.132292,-0.132292 -0.238125,-0.132292 h -1.455209 c -0.185208,0 -0.264583,0.07938 -0.264583,0.264583 v 16.139583 c 0,0.185209 0.07937,0.264584 0.264583,0.264584 h 1.534584 c 0.185208,0 0.264583,-0.07937 0.264583,-0.264584 v -5.609166 c 0,-2.804583 -0.02646,-5.503333 -0.07937,-6.455833 h 0.07937 c 0.105833,0.370416 0.3175,0.926041 0.502708,1.243541 l 6.0325,10.95375 c 0.05292,0.07937 0.15875,0.132292 0.238125,0.132292 h 1.481667 c 0.185208,0 0.264583,-0.07937 0.264583,-0.264584 z"
       style="font-size:100px;line-height:1;font-family:ConduitITCStd;-inkscape-font-specification:ConduitITCStd;text-align:center;text-anchor:middle;white-space:pre;fill:#ffffff;stroke-width:0.264583"
       id="path49195" />
    <path
       d="m 52.263936,40.017915 v -7.276041 c 0,-2.8575 -1.825625,-4.683125 -4.683125,-4.683125 h -5.212292 c -0.185208,0 -0.264583,0.07938 -0.264583,0.264583 v 16.139583 c 0,0.185209 0.07938,0.264584 0.264583,0.264584 h 5.212292 c 2.8575,0 4.683125,-1.825625 4.683125,-4.709584 z m -2.06375,0.291042 c 0,1.455208 -1.190625,2.592917 -2.619375,2.592917 h -3.148542 c -0.185208,0 -0.264583,-0.07937 -0.264583,-0.264584 V 30.148957 c 0,-0.185208 0.07937,-0.264583 0.264583,-0.264583 h 3.148542 c 1.455208,0 2.619375,1.190625 2.619375,2.592917 z"
       style="font-size:100px;line-height:1;font-family:ConduitITCStd;-inkscape-font-specification:ConduitITCStd;text-align:center;text-anchor:middle;white-space:pre;fill:#ffffff;stroke-width:0.264583"
       id="path49197" />
    <path
       d="m 70.712421,40.070832 v -0.396875 c 0,-1.296458 -0.926042,-2.619375 -1.825625,-3.175 -0.211667,-0.132291 -0.211667,-0.3175 0.02646,-0.449791 0.978959,-0.582084 1.799167,-2.010834 1.799167,-3.042709 v -0.264583 c 0,-2.8575 -1.825625,-4.683125 -4.683125,-4.683125 h -5.212291 c -0.185209,0 -0.264584,0.07938 -0.264584,0.264583 v 16.139583 c 0,0.185209 0.07937,0.264584 0.264584,0.264584 h 5.212291 c 2.8575,0 4.683125,-1.799167 4.683125,-4.656667 z m -2.06375,-7.328958 c 0,1.455208 -1.190625,2.619375 -2.619375,2.619375 h -3.148541 c -0.185209,0 -0.264584,-0.07937 -0.264584,-0.264583 v -4.947709 c 0,-0.185208 0.07937,-0.264583 0.264584,-0.264583 h 3.148541 c 1.455208,0 2.619375,1.190625 2.619375,2.592917 z m 0,7.567083 c 0,1.455208 -1.190625,2.592917 -2.619375,2.592917 h -3.148541 c -0.185209,0 -0.264584,-0.07937 -0.264584,-0.264584 v -5.185833 c 0,-0.185208 0.07937,-0.264583 0.264584,-0.264583 h 3.148541 c 1.455208,0 2.619375,1.164167 2.619375,2.566458 z"
       style="font-size:100px;line-height:1;font-family:ConduitITCStd;-inkscape-font-specification:ConduitITCStd;text-align:center;text-anchor:middle;white-space:pre;fill:#ffffff;stroke-width:0.264583"
       id="path49199" />
    <path
       d="m 83.907689,40.57354 v -8.360833 c 0,-2.619375 -1.825625,-4.418541 -4.683125,-4.418541 h -0.820208 c -2.8575,0 -4.683125,1.825625 -4.683125,4.418541 v 8.360833 c 0,2.619375 1.825625,4.418542 4.683125,4.418542 h 0.820208 c 2.8575,0 4.683125,-1.825625 4.683125,-4.418542 z m -2.090208,0 c 0,1.42875 -1.190625,2.592917 -2.592917,2.592917 h -0.820208 c -1.455208,0 -2.592917,-1.190625 -2.592917,-2.592917 v -8.360833 c 0,-1.455208 1.164167,-2.592916 2.592917,-2.592916 h 0.820208 c 1.42875,0 2.592917,1.164166 2.592917,2.592916 z"
       style="font-size:100px;line-height:1;font-family:ConduitITCStd;-inkscape-font-specification:ConduitITCStd;text-align:center;text-anchor:middle;white-space:pre;fill:#ffffff;stroke-width:0.264583"
       id="path49201" />
    <path
       d="M 97.317103,44.38354 92.422311,28.243957 c -0.02646,-0.132291 -0.132291,-0.185208 -0.264583,-0.185208 h -1.217083 c -0.132292,0 -0.238125,0.05292 -0.264583,0.185208 l -4.92125,16.139583 c -0.05292,0.211667 0.02646,0.343959 0.264583,0.343959 h 1.534583 c 0.132292,0 0.238125,-0.05292 0.264584,-0.185209 l 1.005416,-3.571875 c 0.02646,-0.132291 0.132292,-0.15875 0.264584,-0.15875 h 4.762499 c 0.132292,0 0.238125,0.02646 0.264584,0.15875 l 1.005416,3.571875 c 0.02646,0.132292 0.132292,0.185209 0.264584,0.185209 h 1.666875 c 0.238125,0 0.3175,-0.132292 0.264583,-0.343959 z m -3.889375,-5.741458 c 0.05292,0.185209 -0.02646,0.343958 -0.264583,0.343958 H 89.75002 c -0.238125,0 -0.3175,-0.158749 -0.264583,-0.343958 l 1.5875,-5.87375 c 0.264583,-0.978958 0.396875,-1.905 0.396875,-1.905 h 0.07937 c 0,0 0.132291,0.9525 0.370416,1.905 z"
       style="font-size:100px;line-height:1;font-family:ConduitITCStd;-inkscape-font-specification:ConduitITCStd;text-align:center;text-anchor:middle;white-space:pre;fill:#ffffff;stroke-width:0.264583"
       id="path49203" />
    <path
       d="m 109.8075,44.38354 -2.61937,-7.540624 c -0.0529,-0.132292 0,-0.238125 0.13229,-0.291042 1.16417,-0.502708 2.40771,-2.169583 2.40771,-3.545417 v -0.264583 c 0,-2.8575 -1.82563,-4.683125 -4.68313,-4.683125 h -5.212289 c -0.185208,0 -0.264583,0.07938 -0.264583,0.264583 v 16.139583 c 0,0.185209 0.07937,0.264584 0.264583,0.264584 h 1.534579 c 0.18521,0 0.26459,-0.07937 0.26459,-0.264584 v -7.011458 c 0,-0.185208 0.0794,-0.264583 0.26458,-0.264583 h 2.98979 c 0.10584,0 0.18521,0.05292 0.21167,0.15875 l 2.48708,7.196666 c 0.0265,0.105834 0.13229,0.185209 0.23813,0.185209 h 1.74625 c 0.23812,0 0.3175,-0.132292 0.23812,-0.343959 z m -2.14312,-11.641666 c 0,1.455208 -1.19063,2.619375 -2.61938,2.619375 h -3.14854 c -0.18521,0 -0.26458,-0.07937 -0.26458,-0.264583 v -4.947709 c 0,-0.185208 0.0794,-0.264583 0.26458,-0.264583 h 3.14854 c 1.45521,0 2.61938,1.190625 2.61938,2.592917 z"
       style="font-size:100px;line-height:1;font-family:ConduitITCStd;-inkscape-font-specification:ConduitITCStd;text-align:center;text-anchor:middle;white-space:pre;fill:#ffffff;stroke-width:0.264583"
       id="path49205" />
    <path
       d="m 123.00897,40.017915 v -7.276041 c 0,-2.8575 -1.82563,-4.683125 -4.68313,-4.683125 h -5.21229 c -0.1852,0 -0.26458,0.07938 -0.26458,0.264583 v 16.139583 c 0,0.185209 0.0794,0.264584 0.26458,0.264584 h 5.21229 c 2.8575,0 4.68313,-1.825625 4.68313,-4.709584 z m -2.06375,0.291042 c 0,1.455208 -1.19063,2.592917 -2.61938,2.592917 h -3.14854 c -0.1852,0 -0.26458,-0.07937 -0.26458,-0.264584 V 30.148957 c 0,-0.185208 0.0794,-0.264583 0.26458,-0.264583 h 3.14854 c 1.45521,0 2.61938,1.190625 2.61938,2.592917 z"
       style="font-size:100px;line-height:1;font-family:ConduitITCStd;-inkscape-font-specification:ConduitITCStd;text-align:center;text-anchor:middle;white-space:pre;fill:#ffffff;stroke-width:0.264583"
       id="path49207" />
    <path
       d="m 141.08704,40.57354 v -3.757083 c 0,-0.185208 -0.0794,-0.264583 -0.26458,-0.264583 h -4.78896 c -0.18521,0 -0.26458,0.07937 -0.26458,0.264583 v 1.296459 c 0,0.185208 0.0794,0.264583 0.26458,0.264583 h 2.69875 c 0.18521,0 0.26458,0.07937 0.26458,0.264583 v 1.931458 c 0,1.42875 -1.19062,2.592917 -2.59291,2.592917 h -0.82021 c -1.45521,0 -2.59292,-1.190625 -2.59292,-2.592917 v -8.360833 c 0,-1.455208 1.16417,-2.592916 2.59292,-2.592916 h 1.29646 c 0.87312,0 1.79916,0.502708 2.35479,1.455208 0.0794,0.132292 0.18521,0.185208 0.3175,0.105833 l 1.40229,-0.687916 c 0.15875,-0.07938 0.21167,-0.211667 0.13229,-0.370417 -0.26458,-0.47625 -0.58208,-0.926042 -1.03187,-1.296458 -0.71438,-0.608542 -1.7198,-1.031875 -3.175,-1.031875 h -1.29646 c -2.8575,0 -4.68313,1.825625 -4.68313,4.418541 v 8.360833 c 0,2.619375 1.82563,4.418542 4.68313,4.418542 h 0.82021 c 2.8575,0 4.68312,-1.825625 4.68312,-4.418542 z"
       style="font-size:100px;line-height:1;font-family:ConduitITCStd;-inkscape-font-specification:ConduitITCStd;text-align:center;text-anchor:middle;white-space:pre;fill:#ffffff;stroke-width:0.264583"
       id="path49209" />
    <path
       d="m 154.47124,44.38354 -4.8948,-16.139583 c -0.0264,-0.132291 -0.13229,-0.185208 -0.26458,-0.185208 h -1.21708 c -0.13229,0 -0.23813,0.05292 -0.26459,0.185208 l -4.92125,16.139583 c -0.0529,0.211667 0.0265,0.343959 0.26459,0.343959 h 1.53458 c 0.13229,0 0.23813,-0.05292 0.26458,-0.185209 l 1.00542,-3.571875 c 0.0265,-0.132291 0.13229,-0.15875 0.26458,-0.15875 h 4.7625 c 0.1323,0 0.23813,0.02646 0.26459,0.15875 l 1.00541,3.571875 c 0.0265,0.132292 0.1323,0.185209 0.26459,0.185209 h 1.66687 c 0.23813,0 0.3175,-0.132292 0.26459,-0.343959 z m -3.88938,-5.741458 c 0.0529,0.185209 -0.0265,0.343958 -0.26458,0.343958 h -3.41313 c -0.23812,0 -0.3175,-0.158749 -0.26458,-0.343958 l 1.5875,-5.87375 c 0.26458,-0.978958 0.39687,-1.905 0.39687,-1.905 h 0.0794 c 0,0 0.13229,0.9525 0.37042,1.905 z"
       style="font-size:100px;line-height:1;font-family:ConduitITCStd;-inkscape-font-specification:ConduitITCStd;text-align:center;text-anchor:middle;white-space:pre;fill:#ffffff;stroke-width:0.264583"
       id="path49211" />
    <path
       d="M 169.73976,44.462915 V 28.323332 c 0,-0.185208 -0.0794,-0.264583 -0.26458,-0.264583 h -1.45521 c -0.10583,0 -0.18521,0.05292 -0.23812,0.15875 l -4.15396,9.763125 c -0.0794,0.185208 -0.3175,0.846667 -0.37042,1.058333 h -0.0794 c -0.0529,-0.211666 -0.26459,-0.899583 -0.34396,-1.058333 l -4.15396,-9.763125 c -0.0529,-0.105833 -0.13229,-0.15875 -0.23813,-0.15875 h -1.4552 c -0.18521,0 -0.26459,0.07938 -0.26459,0.264583 v 16.139583 c 0,0.185209 0.0794,0.264584 0.26459,0.264584 h 1.53458 c 0.18521,0 0.26458,-0.07937 0.26458,-0.264584 v -5.450416 c 0,-2.566458 -0.0794,-4.736042 -0.23812,-6.138333 l 0.10583,-0.02646 c 0.13229,0.529167 0.42333,1.322917 0.66146,1.852084 l 3.30729,7.434791 c 0.0529,0.105833 0.13229,0.15875 0.23813,0.15875 h 0.71437 c 0.10583,0 0.18521,-0.05292 0.23813,-0.15875 l 3.33375,-7.434791 c 0.26458,-0.582084 0.55562,-1.455209 0.66145,-1.852084 l 0.10584,0.02646 c -0.13229,1.349375 -0.23813,3.624791 -0.23813,6.138333 v 5.450416 c 0,0.185209 0.0794,0.264584 0.26459,0.264584 h 1.53458 c 0.18521,0 0.26458,-0.07937 0.26458,-0.264584 z"
       style="font-size:100px;line-height:1;font-family:ConduitITCStd;-inkscape-font-specification:ConduitITCStd;text-align:center;text-anchor:middle;white-space:pre;fill:#ffffff;stroke-width:0.264583"
       id="path49213" />
    <path
       d="m 183.14173,44.462915 v -1.296458 c 0,-0.185208 -0.0794,-0.264583 -0.26458,-0.264583 h -6.77333 c -0.18521,0 -0.26459,-0.07937 -0.26459,-0.264584 v -5.185833 c 0,-0.185208 0.0794,-0.264583 0.26459,-0.264583 h 5.55625 c 0.18521,0 0.26458,-0.07938 0.26458,-0.264583 v -1.296459 c 0,-0.185208 -0.0794,-0.264583 -0.26458,-0.264583 h -5.55625 c -0.18521,0 -0.26459,-0.07937 -0.26459,-0.264583 v -4.947709 c 0,-0.185208 0.0794,-0.264583 0.26459,-0.264583 h 6.77333 c 0.18521,0 0.26458,-0.07938 0.26458,-0.264583 v -1.296459 c 0,-0.185208 -0.0794,-0.264583 -0.26458,-0.264583 h -8.83708 c -0.18521,0 -0.26459,0.07938 -0.26459,0.264583 v 16.139583 c 0,0.185209 0.0794,0.264584 0.26459,0.264584 h 8.83708 c 0.18521,0 0.26458,-0.07937 0.26458,-0.264584 z"
       style="font-size:100px;line-height:1;font-family:ConduitITCStd;-inkscape-font-specification:ConduitITCStd;text-align:center;text-anchor:middle;white-space:pre;fill:#ffffff;stroke-width:0.264583"
       id="path49215" />
    <path
       d="m 195.20508,40.57354 c 0,-3.122083 -2.11667,-4.312708 -4.10104,-5.212291 -1.87854,-0.846667 -3.59834,-1.561042 -3.59834,-3.148542 0,-1.534583 1.00542,-2.592916 2.59292,-2.592916 h 0.42333 c 0.89959,0 1.79917,0.502708 2.3548,1.455208 0.0794,0.132292 0.1852,0.185208 0.3175,0.105833 l 1.40229,-0.687916 c 0.15875,-0.07938 0.21166,-0.211667 0.13229,-0.370417 -0.23813,-0.423333 -0.50271,-0.820208 -0.87313,-1.164167 -0.71437,-0.687916 -1.7727,-1.164166 -3.33375,-1.164166 h -0.42333 c -2.80458,0 -4.68312,1.878541 -4.68312,4.418541 0,3.069167 2.30187,4.101042 4.33916,5.027084 1.77271,0.79375 3.38667,1.561041 3.38667,3.333749 0,1.455209 -1.19063,2.592917 -2.61938,2.592917 h -1.1377 c -0.89959,0 -1.79917,-0.502708 -2.32834,-1.481667 -0.0794,-0.15875 -0.21166,-0.211666 -0.37041,-0.132291 l -1.37584,0.714375 c -0.15875,0.07937 -0.18521,0.211666 -0.10583,0.370416 0.29104,0.555625 0.66146,1.058334 1.16417,1.455209 0.68791,0.555625 1.64041,0.899583 3.01625,0.899583 h 1.1377 c 2.88396,0 4.68313,-1.825625 4.68313,-4.418542 z"
       style="font-size:100px;line-height:1;font-family:ConduitITCStd;-inkscape-font-specification:ConduitITCStd;text-align:center;text-anchor:middle;white-space:pre;fill:#ffffff;stroke-width:0.264583"
       id="path49217" />
    <g
       aria-label="POWERED BY"
       id="text45171"
       style="font-size:15.0813px;line-height:1;stroke-width:0.264583">
      <path
         d="m 76.015426,326.65279 c 0,-1.6137 -1.040609,-2.66939 -2.66939,-2.66939 H 70.37502 c -0.105569,0 -0.150813,0.0452 -0.150813,0.15081 v 9.1996 c 0,0.10557 0.04524,0.15081 0.150813,0.15081 h 0.874716 c 0.105569,0 0.150813,-0.0452 0.150813,-0.15081 v -3.99655 c 0,-0.10557 0.04524,-0.15081 0.150813,-0.15081 h 1.794674 c 1.628781,0 2.66939,-1.10094 2.66939,-2.53366 z m -1.176341,0 c 0,0.82947 -0.678659,1.49305 -1.493049,1.49305 h -1.794674 c -0.10557,0 -0.150813,-0.0452 -0.150813,-0.15081 v -2.82021 c 0,-0.10557 0.04524,-0.15081 0.150813,-0.15081 h 1.794674 c 0.829472,0 1.493049,0.67866 1.493049,1.47797 z"
         style="font-family:ConduitITCStd;-inkscape-font-specification:ConduitITCStd;text-align:center;text-anchor:middle;fill:#ffffff"
         id="path49359" />
      <path
         d="m 82.859273,331.11686 v -4.7657 c 0,-1.49304 -1.04061,-2.51857 -2.66939,-2.51857 h -0.46752 c -1.628781,0 -2.66939,1.04061 -2.66939,2.51857 v 4.7657 c 0,1.49304 1.040609,2.51857 2.66939,2.51857 h 0.46752 c 1.62878,0 2.66939,-1.04061 2.66939,-2.51857 z m -1.191423,0 c 0,0.81439 -0.678658,1.47796 -1.477967,1.47796 h -0.46752 c -0.829472,0 -1.477968,-0.67866 -1.477968,-1.47796 v -4.7657 c 0,-0.82947 0.663577,-1.47796 1.477968,-1.47796 h 0.46752 c 0.81439,0 1.477967,0.66357 1.477967,1.47796 z"
         style="font-family:ConduitITCStd;-inkscape-font-specification:ConduitITCStd;text-align:center;text-anchor:middle;fill:#ffffff"
         id="path49361" />
      <path
         d="m 93.669737,324.16438 c 0.03016,-0.12065 -0.03016,-0.18098 -0.150813,-0.18098 h -0.980285 c -0.07541,0 -0.135731,0.0452 -0.150813,0.12065 l -1.116016,6.0476 c -0.04524,0.2413 -0.105569,0.66358 -0.150813,1.04061 h -0.03016 c -0.04524,-0.33179 -0.12065,-0.67866 -0.211138,-1.02553 l -1.704187,-6.10792 c -0.01508,-0.0754 -0.07541,-0.10557 -0.150813,-0.10557 h -0.34687 c -0.07541,0 -0.135731,0.0302 -0.150813,0.10557 l -1.704186,6.21349 c -0.105569,0.4072 -0.180976,0.73899 -0.211139,0.96521 h -0.03016 c -0.01508,-0.22622 -0.07541,-0.57309 -0.150813,-0.98029 l -1.176342,-6.15317 c -0.01508,-0.0754 -0.07541,-0.12065 -0.150813,-0.12065 h -0.980284 c -0.12065,0 -0.180976,0.0603 -0.150813,0.18098 l 1.990732,9.19959 c 0.01508,0.0754 0.07541,0.12065 0.150813,0.12065 h 0.678658 c 0.07541,0 0.135732,-0.0302 0.150813,-0.10557 l 1.689106,-5.71581 c 0.09049,-0.31671 0.165894,-0.66358 0.180975,-0.81439 h 0.03016 c 0.01508,0.15081 0.07541,0.49768 0.165894,0.81439 l 1.674024,5.71581 c 0.01508,0.0754 0.07541,0.10557 0.150813,0.10557 h 0.678659 c 0.07541,0 0.135732,-0.0452 0.150813,-0.12065 z"
         style="font-family:ConduitITCStd;-inkscape-font-specification:ConduitITCStd;text-align:center;text-anchor:middle;fill:#ffffff"
         id="path49363" />
      <path
         d="m 100.3352,333.33381 v -0.73899 c 0,-0.10557 -0.0452,-0.15081 -0.15081,-0.15081 h -3.860815 c -0.10557,0 -0.150813,-0.0452 -0.150813,-0.15081 v -2.95594 c 0,-0.10557 0.04524,-0.15081 0.150813,-0.15081 h 3.167072 c 0.10557,0 0.150813,-0.0452 0.150813,-0.15081 v -0.73899 c 0,-0.10557 -0.04524,-0.15081 -0.150813,-0.15081 h -3.167072 c -0.10557,0 -0.150813,-0.0452 -0.150813,-0.15081 v -2.82021 c 0,-0.10557 0.04524,-0.15081 0.150813,-0.15081 h 3.860815 c 0.10557,0 0.15081,-0.0452 0.15081,-0.15081 v -0.73899 c 0,-0.10557 -0.0452,-0.15081 -0.15081,-0.15081 h -5.037157 c -0.105569,0 -0.150813,0.0452 -0.150813,0.15081 v 9.1996 c 0,0.10557 0.04524,0.15081 0.150813,0.15081 h 5.037157 c 0.10557,0 0.15081,-0.0452 0.15081,-0.15081 z"
         style="font-family:ConduitITCStd;-inkscape-font-specification:ConduitITCStd;text-align:center;text-anchor:middle;fill:#ffffff"
         id="path49365" />
      <path
         d="m 107.78442,333.28856 -1.49305,-4.29817 c -0.0302,-0.0754 0,-0.13573 0.0754,-0.16589 0.66358,-0.28655 1.3724,-1.23667 1.3724,-2.0209 v -0.15081 c 0,-1.62878 -1.04061,-2.66939 -2.66939,-2.66939 h -2.97102 c -0.10557,0 -0.15081,0.0452 -0.15081,0.15081 v 9.1996 c 0,0.10557 0.0452,0.15081 0.15081,0.15081 h 0.87472 c 0.10557,0 0.15081,-0.0452 0.15081,-0.15081 v -3.99655 c 0,-0.10557 0.0452,-0.15081 0.15081,-0.15081 h 1.70419 c 0.0603,0 0.10557,0.0302 0.12065,0.0905 l 1.41764,4.10211 c 0.0151,0.0603 0.0754,0.10557 0.13573,0.10557 h 0.99537 c 0.13573,0 0.18098,-0.0754 0.13573,-0.19606 z m -1.22158,-6.63577 c 0,0.82947 -0.67866,1.49305 -1.49305,1.49305 h -1.79468 c -0.10557,0 -0.15081,-0.0452 -0.15081,-0.15081 v -2.82021 c 0,-0.10557 0.0452,-0.15081 0.15081,-0.15081 h 1.79468 c 0.82947,0 1.49305,0.67866 1.49305,1.47797 z"
         style="font-family:ConduitITCStd;-inkscape-font-specification:ConduitITCStd;text-align:center;text-anchor:middle;fill:#ffffff"
         id="path49367" />
      <path
         d="m 114.85684,333.33381 v -0.73899 c 0,-0.10557 -0.0452,-0.15081 -0.15081,-0.15081 h -3.86081 c -0.10557,0 -0.15082,-0.0452 -0.15082,-0.15081 v -2.95594 c 0,-0.10557 0.0452,-0.15081 0.15082,-0.15081 h 3.16707 c 0.10557,0 0.15081,-0.0452 0.15081,-0.15081 v -0.73899 c 0,-0.10557 -0.0452,-0.15081 -0.15081,-0.15081 h -3.16707 c -0.10557,0 -0.15082,-0.0452 -0.15082,-0.15081 v -2.82021 c 0,-0.10557 0.0452,-0.15081 0.15082,-0.15081 h 3.86081 c 0.10557,0 0.15081,-0.0452 0.15081,-0.15081 v -0.73899 c 0,-0.10557 -0.0452,-0.15081 -0.15081,-0.15081 h -5.03716 c -0.10557,0 -0.15081,0.0452 -0.15081,0.15081 v 9.1996 c 0,0.10557 0.0452,0.15081 0.15081,0.15081 h 5.03716 c 0.10557,0 0.15081,-0.0452 0.15081,-0.15081 z"
         style="font-family:ConduitITCStd;-inkscape-font-specification:ConduitITCStd;text-align:center;text-anchor:middle;fill:#ffffff"
         id="path49369" />
      <path
         d="m 122.26082,330.80015 v -4.14736 c 0,-1.62878 -1.04061,-2.66939 -2.66939,-2.66939 h -2.97102 c -0.10557,0 -0.15081,0.0452 -0.15081,0.15081 v 9.1996 c 0,0.10557 0.0452,0.15081 0.15081,0.15081 h 2.97102 c 1.62878,0 2.66939,-1.04061 2.66939,-2.68447 z m -1.17634,0.16589 c 0,0.82947 -0.67866,1.47797 -1.49305,1.47797 h -1.79468 c -0.10557,0 -0.15081,-0.0452 -0.15081,-0.15081 v -7.11838 c 0,-0.10557 0.0452,-0.15081 0.15081,-0.15081 h 1.79468 c 0.82947,0 1.49305,0.67866 1.49305,1.47797 z"
         style="font-family:ConduitITCStd;-inkscape-font-specification:ConduitITCStd;text-align:center;text-anchor:middle;fill:#ffffff"
         id="path49371" />
      <path
         d="m 132.77649,330.83031 v -0.22622 c 0,-0.73898 -0.52785,-1.49305 -1.04061,-1.80976 -0.12065,-0.0754 -0.12065,-0.18097 0.0151,-0.25638 0.55801,-0.33179 1.02553,-1.14618 1.02553,-1.73435 v -0.15081 c 0,-1.62878 -1.04061,-2.66939 -2.66939,-2.66939 h -2.97102 c -0.10557,0 -0.15081,0.0452 -0.15081,0.15081 v 9.1996 c 0,0.10557 0.0452,0.15081 0.15081,0.15081 h 2.97102 c 1.62878,0 2.66939,-1.02553 2.66939,-2.65431 z m -1.17634,-4.17752 c 0,0.82947 -0.67866,1.49305 -1.49305,1.49305 h -1.79468 c -0.10556,0 -0.15081,-0.0452 -0.15081,-0.15081 v -2.82021 c 0,-0.10557 0.0453,-0.15081 0.15081,-0.15081 h 1.79468 c 0.82947,0 1.49305,0.67866 1.49305,1.47797 z m 0,4.31325 c 0,0.82947 -0.67866,1.47797 -1.49305,1.47797 h -1.79468 c -0.10556,0 -0.15081,-0.0452 -0.15081,-0.15081 v -2.95594 c 0,-0.10557 0.0453,-0.15081 0.15081,-0.15081 h 1.79468 c 0.82947,0 1.49305,0.66358 1.49305,1.46288 z"
         style="font-family:ConduitITCStd;-inkscape-font-specification:ConduitITCStd;text-align:center;text-anchor:middle;fill:#ffffff"
         id="path49373" />
      <path
         d="m 139.74334,324.20962 c 0.0754,-0.13573 0.0151,-0.22622 -0.13573,-0.22622 H 138.567 c -0.0603,0 -0.10557,0.0452 -0.13573,0.0905 l -1.74943,3.61951 c -0.0754,0.15081 -0.19606,0.15081 -0.27146,0 l -1.74943,-3.61951 c -0.0302,-0.0453 -0.0754,-0.0905 -0.13574,-0.0905 h -1.05569 c -0.15081,0 -0.21114,0.0905 -0.13573,0.22622 l 2.60907,4.90142 v 4.22277 c 0,0.10557 0.0452,0.15081 0.15081,0.15081 h 0.8898 c 0.10556,0 0.15081,-0.0452 0.15081,-0.15081 v -4.22277 z"
         style="font-family:ConduitITCStd;-inkscape-font-specification:ConduitITCStd;text-align:center;text-anchor:middle;fill:#ffffff"
         id="path49375" />
    </g>
    <g
       id="g49597">
      <path
         fill="#ffffff"
         d="m 54.249,21.16 -2.727,1.002 -4.014,-5.593 c -0.245,-0.37 -0.561,-0.517 -1.01,-0.573 h -0.855 v 5.88 H 42.916 L 43.058,7.39 h 4.59 c 3.532,-0.029 4.955,1.856 5.02,4.162 -0.065,1.84 -1.174,3.161 -2.868,3.727 z m 16.92,-6.598 c 0.02,4.338 -3.646,7.268 -7.457,7.314 h -5.02 L 58.838,7.39 h 4.734 c 4.578,-0.055 7.617,2.793 7.597,7.172 z M 79.489,7.39 79.348,21.876 H 76.624 L 76.764,7.39 h 2.726 z m 8.75,14.486 H 85.517 L 85.659,7.819 88.099,6.957 94.979,18.145 94.838,7.39 h 2.725 l -0.142,13.914 -2.723,0.858 -6.6,-11.047 h -0.141 z m 27.397,-0.572 -2.58,0.858 -1.435,-4.158 h -5.02 l -1.725,4.158 -2.435,-0.858 5.593,-13.915 h 2.439 z m -85.4,2.85 a 10.054,10.054 0 0 1 -7.79,-0.353 9.974,9.974 0 0 1 -5.182,-5.704 l -0.01,-0.02 c 0.003,0.006 0.003,0.008 0.007,0.01 A 10.214,10.214 0 0 1 16.61,14.53 c 0,-1.439 0.308,-2.863 0.922,-4.206 1.134,-2.49 3.193,-4.39 5.802,-5.36 5.266,-1.874 11.086,0.854 12.966,6.06 0.955,2.596 0.845,5.385 -0.304,7.865 a 10.105,10.105 0 0 1 -5.76,5.265 z M 35.547,6.1 33.452,0.361 17.635,6.1 H 0 v 16.926 h 18.016 l 2.096,5.737 15.807,-5.737 h 92.83 V 6.1 H 35.546 Z"
         mask="url(#b)"
         id="path47050"
         style="fill:#ffffff;fill-rule:evenodd"
         transform="matrix(0.5402139,0,0,0.5402139,70.224,335.18728)" />
      <path
         fill="#ffffff"
         d="m 95.80853,340.342 h -0.851377 v 2.32292 h 0.851377 c 0.442976,0.006 1.302456,-0.18691 1.318122,-1.23709 -0.01567,-0.71524 -0.602878,-1.10311 -1.318122,-1.08583 m 7.59433,5.42375 h 0.92971 c 1.6887,-0.0308 2.83126,-1.01236 2.86637,-2.78966 -0.0351,-1.45156 -1.04315,-2.57952 -2.55737,-2.55684 h -1.23871 v 5.34596 z m 26.73194,-2.015 -0.93025,-3.09866 -1.0075,3.09866 z m -46.749029,-4.35142 c -0.993453,0.36843 -1.777303,1.09285 -2.209474,2.04471 a 3.8382198,3.8382198 0 0 0 -0.10102,2.95173 l 0.0065,0.013 c 0.337634,0.95888 1.037211,1.72329 1.962597,2.16086 a 3.8187721,3.8187721 0 0 0 2.958212,0.13397 3.8549664,3.8549664 0 0 0 2.188406,-1.99879 c 0.438654,-0.94213 0.478089,-2.00527 0.110204,-3.00197 -0.712002,-1.98042 -2.921477,-3.01061 -4.915407,-2.30347"
         id="path47054"
         style="fill:#ffffff;fill-rule:evenodd;stroke-width:0.540214" />
      <path
         fill="#ffffff"
         d="m 95.954928,354.15635 -0.311163,-0.74873 c -0.12695,-0.30414 -0.259303,-0.77251 -0.259303,-0.77251 0,0 -0.12749,0.46837 -0.2539,0.77251 l -0.311163,0.74873 z m -0.596396,-3.12081 h 0.07617 l 1.972861,4.35142 h -0.932409 l -0.20312,-0.48781 h -1.750293 l -0.203661,0.48781 h -0.856239 z m 2.519018,-0.22851 h 0.856239 v 2.30293 c 0.165305,-0.31062 0.463503,-0.48241 0.837871,-0.48241 0.58991,0 1.01506,0.43217 1.01506,1.19927 v 1.56122 h -0.856777 v -1.50449 c 0,-0.30414 -0.145858,-0.47539 -0.449998,-0.47539 -0.343036,0 -0.546156,0.19015 -0.546156,0.53265 v 1.44669 H 97.87755 Z m 5.32921,2.9944 c -0.0378,-0.2982 -0.22851,-0.47539 -0.56452,-0.47539 -0.33602,0 -0.56507,0.15126 -0.63476,0.47539 z m -0.48835,0.93295 a 1.1722642,1.1722642 0 0 0 0.6785,-0.21608 l 0.48836,0.52671 c -0.2593,0.22851 -0.58992,0.39975 -1.15444,0.39975 -0.96428,0 -1.58607,-0.58343 -1.58607,-1.41482 0,-0.81896 0.65366,-1.40239 1.49099,-1.40239 0.97077,0 1.49694,0.72388 1.43373,1.66926 h -2.04849 c 0.0827,0.27875 0.31062,0.43757 0.69796,0.43757 z m 3.87657,-0.70444 c 0,-0.39921 -0.2096,-0.64717 -0.57803,-0.64717 -0.36086,0 -0.56398,0.2485 -0.56398,0.64717 0,0.41273 0.20312,0.66555 0.56452,0.66555 0.36735,0 0.57749,-0.25282 0.57749,-0.66555 m -2.03012,0 c 0,-0.81896 0.52617,-1.40239 1.20467,-1.40239 0.40679,0 0.67311,0.17179 0.82545,0.4635 l -0.013,-0.40624 h 0.85029 v 2.70269 h -0.85029 l 0.013,-0.41272 c -0.13937,0.27335 -0.42515,0.46998 -0.83787,0.46998 -0.64664,0 -1.19225,-0.58343 -1.19225,-1.41482 m 5.53179,0 c 0,-0.39921 -0.24094,-0.64717 -0.60882,-0.64717 -0.36195,0 -0.59046,0.2485 -0.59046,0.64717 0,0.42515 0.22851,0.66555 0.59046,0.66555 0.36788,0 0.60882,-0.2404 0.60882,-0.66555 m -2.08091,0 c 0,-0.83139 0.55858,-1.40239 1.2117,-1.40239 0.43109,0 0.67257,0.17179 0.84382,0.43811 v -2.25809 h 0.85678 v 4.57993 h -0.85678 l 0.0189,-0.39327 c -0.15235,0.28523 -0.43758,0.45053 -0.84976,0.45053 -0.66014,0 -1.22467,-0.58343 -1.22467,-1.41482 m 6.99145,0.0124 c 0,-0.40624 -0.22851,-0.67797 -0.60882,-0.67797 -0.38085,0 -0.61584,0.27173 -0.61584,0.67797 0,0.39976 0.23499,0.67959 0.61584,0.67959 0.38031,0 0.60882,-0.27929 0.60882,-0.67959 m -2.09981,0 c 0,-0.82383 0.65312,-1.41428 1.49099,-1.41428 0.83733,0 1.48451,0.59045 1.48451,1.41482 0,0.81842 -0.64718,1.40239 -1.48451,1.40239 -0.83787,0 -1.49099,-0.58343 -1.49099,-1.40239 m 3.80041,-0.64772 h -0.45054 v -0.71038 h 0.45054 v -0.90648 c 0,-0.69795 0.32953,-1.05288 0.99561,-1.05288 0.38085,0 0.63475,0.11399 0.83139,0.34196 l -0.46296,0.57101 c -0.0637,-0.0756 -0.13938,-0.14586 -0.27281,-0.14586 -0.14046,0 -0.235,0.0762 -0.235,0.27281 v 0.91998 h 0.72929 v 0.71038 h -0.72929 v 1.99231 h -0.85623 v -1.99231 z m 3.41955,0.63475 c 0,-0.81896 0.63421,-1.40239 1.47802,-1.40239 0.53914,0 0.86273,0.19718 1.13553,0.54021 l -0.60882,0.49376 a 0.63853283,0.63853283 0 0 0 -0.52671,-0.2847 c -0.38679,0 -0.60287,0.27227 -0.60287,0.65366 0,0.39328 0.21608,0.67203 0.60287,0.67203 0.27281,0 0.41867,-0.12695 0.54562,-0.2539 l 0.57695,0.5078 c -0.26633,0.2982 -0.58343,0.48835 -1.12257,0.48835 -0.84381,0 -1.47802,-0.58343 -1.47802,-1.41482 m 3.12136,-3.22291 h 0.85623 v 2.30293 c 0.16531,-0.31062 0.46297,-0.48241 0.83734,-0.48241 0.59045,0 1.0156,0.43217 1.0156,1.19927 v 1.56122 h -0.85678 v -1.50449 c 0,-0.30414 -0.14586,-0.47539 -0.45054,-0.47539 -0.3425,0 -0.54562,0.19015 -0.54562,0.53265 v 1.44669 h -0.85623 z m 5.30382,3.22291 c 0,-0.39921 -0.20907,-0.64717 -0.57803,-0.64717 -0.36087,0 -0.56399,0.2485 -0.56399,0.64717 0,0.41273 0.20312,0.66555 0.56453,0.66555 0.36842,0 0.57749,-0.25282 0.57749,-0.66555 m -2.03013,0 c 0,-0.81896 0.52671,-1.40239 1.20468,-1.40239 0.40678,0 0.67311,0.17179 0.82545,0.4635 l -0.0124,-0.40624 h 0.84976 v 2.70269 h -0.84976 l 0.0124,-0.41272 c -0.13938,0.27335 -0.42515,0.46998 -0.83734,0.46998 -0.64717,0 -1.19279,-0.58343 -1.19279,-1.41482 m 3.54002,-1.34513 h 0.85678 l -0.0194,0.44406 c 0.16531,-0.32305 0.48242,-0.50078 0.85678,-0.50078 0.58992,0 1.01507,0.43109 1.01507,1.19873 v 1.56068 h -0.85678 v -1.50341 c 0,-0.30468 -0.14586,-0.47593 -0.45,-0.47593 -0.34304,0 -0.54562,0.19015 -0.54562,0.53265 v 1.44669 h -0.85678 z"
         id="path47056"
         style="fill:#ffffff;fill-rule:evenodd;stroke-width:0.540214" />
      <g
         transform="matrix(0.5402139,0,0,0.5402139,132.88881,352.47413)"
         id="g47063"
         style="fill:#ffffff;fill-rule:evenodd">
        <mask
           id="d"
           fill="#ffffff">
          <use
             xlink:href="#c"
             id="use47058"
             x="0"
             y="0"
             width="100%"
             height="100%" />
        </mask>
        <path
           fill="#ffffff"
           d="m 4.68,2.88 c 0,-0.739 -0.446,-1.198 -1.127,-1.198 -0.67,0 -1.093,0.46 -1.093,1.198 0,0.787 0.423,1.232 1.093,1.232 0.68,0 1.127,-0.445 1.127,-1.232 M 0.863,6.767 1.979,5.9 c 0.352,0.434 0.763,0.774 1.48,0.774 0.727,0 1.186,-0.435 1.186,-1.35 V 4.725 C 4.375,5.183 3.858,5.5 3.095,5.5 1.873,5.5 0.828,4.42 0.828,2.88 c 0,-1.539 1.034,-2.596 2.242,-2.596 0.798,0 1.316,0.353 1.609,0.881 L 4.645,0.39 H 6.23 v 4.991 c 0,1.903 -1.245,2.62 -2.701,2.62 C 2.202,8 1.427,7.53 0.863,6.766"
           mask="url(#d)"
           id="path47061"
           style="fill:#ffffff" />
      </g>
      <path
         fill="#ffffff"
         d="m 138.89329,353.80143 c -0.0378,-0.2982 -0.22797,-0.47539 -0.56452,-0.47539 -0.33602,0 -0.56453,0.15126 -0.63475,0.47539 z m -0.48835,0.93295 c 0.31062,0 0.54561,-0.12101 0.67905,-0.21608 l 0.48835,0.52671 c -0.26038,0.22851 -0.58991,0.39975 -1.15498,0.39975 -0.96428,0 -1.58553,-0.58343 -1.58553,-1.41482 0,-0.81896 0.65366,-1.40239 1.49099,-1.40239 0.97023,0 1.49694,0.72388 1.43319,1.66926 h -2.04903 c 0.0827,0.27875 0.31062,0.43757 0.69796,0.43757 z"
         id="path47065"
         style="fill:#ffffff;fill-rule:evenodd;stroke-width:0.540214" />
    </g>
    <g
       id="g49159"
       transform="matrix(1.6050988,0,0,1.6050988,-79.368246,-220.06346)">
      <path
         class="st0"
         d="M 89.857692,138.10815 H 90.3604 c 0.555625,0 1.058334,0.26458 1.481667,0.79375 0.07937,0.13229 0.264583,0.13229 0.396875,0.0794 l 0.396875,-0.21166 c 0.105833,-0.0529 0.15875,-0.1323 0.185208,-0.21167 0.02646,-0.0794 0,-0.18521 -0.05292,-0.26458 -0.15875,-0.26459 -0.396875,-0.47625 -0.635,-0.635 -0.47625,-0.34396 -1.084792,-0.52917 -1.799167,-0.52917 H 89.83123 c -1.693334,0 -2.804584,1.05833 -2.804584,2.67229 v 5.18583 c 0,1.61396 1.137709,2.6723 2.804584,2.6723 h 0.502708 c 0.767292,0 1.402292,-0.18521 1.878542,-0.58209 0.211666,-0.15875 0.396875,-0.37041 0.555625,-0.60854 0.05292,-0.0794 0.07937,-0.15875 0.05292,-0.26458 -0.02646,-0.10584 -0.105833,-0.18521 -0.211666,-0.23813 l -0.396875,-0.18521 c -0.15875,-0.0794 -0.291042,-0.0529 -0.396875,0.0794 -0.370417,0.52917 -0.873125,0.79375 -1.455209,0.79375 h -0.502708 c -0.926042,0 -1.666875,-0.74083 -1.666875,-1.69333 v -5.18584 c 0,-0.9525 0.687917,-1.66687 1.666875,-1.66687 z"
         id="path48988"
         style="stroke-width:0.264583" />
      <path
         class="st0"
         d="m 110.3629,141.81231 c -0.21167,0 -0.34396,0.1323 -0.34396,0.34396 v 0.29104 c 0,0.21167 0.13229,0.34396 0.34396,0.34396 h 2.38125 c 0.21167,0 0.34396,-0.13229 0.34396,-0.34396 v -0.29104 c 0,-0.21166 -0.13229,-0.34396 -0.34396,-0.34396 z"
         id="path48994"
         style="stroke-width:0.264583" />
      <path
         class="st0"
         d="m 104.51561,137.28794 h -2.98979 c -0.21167,0 -0.34396,0.13229 -0.34396,0.34396 v 9.525 c 0,0.21166 0.13229,0.34396 0.34396,0.34396 h 2.96333 c 1.74625,0 2.8575,-1.11125 2.8575,-2.8575 v -4.55084 c 0.0265,-1.69333 -1.11125,-2.80458 -2.83104,-2.80458 z m 1.69333,7.51417 c 0,0.97895 -0.74083,1.69333 -1.69333,1.69333 h -1.93146 c -0.13229,0 -0.21167,-0.0794 -0.21167,-0.21167 v -7.80521 c 0,-0.13229 0.0794,-0.21166 0.21167,-0.21166 h 1.93146 c 0.9525,0 1.69333,0.74083 1.69333,1.66687 z"
         id="path48998"
         style="stroke-width:0.264583" />
      <path
         class="st0"
         d="m 109.54269,138.2669 h 3.96875 c 0.21167,0 0.34396,-0.13229 0.34396,-0.34396 v -0.29104 c 0,-0.21167 -0.13229,-0.34396 -0.34396,-0.34396 h -5.00062 c -0.21167,0 -0.34396,0.13229 -0.34396,0.34396 v 9.525 c 0,0.21166 0.13229,0.34396 0.34396,0.34396 h 5.00062 c 0.21167,0 0.34396,-0.1323 0.34396,-0.34396 v -0.3175 c 0,-0.21167 -0.13229,-0.34396 -0.34396,-0.34396 h -3.96875 c -0.13229,0 -0.21166,-0.0794 -0.21166,-0.21167 v -7.80521 c 0,-0.13229 0.0794,-0.21166 0.21166,-0.21166 z"
         id="path49000"
         style="stroke-width:0.264583" />
      <g
         id="g49012"
         transform="matrix(0.26458333,0,0,0.26458333,86.206442,136.65294)">
			<path
   class="st0"
   d="m 38.2,1.8 v 0 c -6.4,0 -10.7,4 -10.7,10.1 v 8 l -1.2,1.5 1.2,1.5 v 8.5 c 0,6.1 4.3,10.1 10.7,10.1 0.6,0 1,-0.4 1,-1.1 v -1.6 c 0,-0.6 -0.4,-1.1 -1,-1.1 h -0.1 c -3.4,0 -6.3,-3 -6.3,-6.4 v -8.8 l -1,-1.2 1,-1.2 v -8.3 c 0,-3.5 2.8,-6.3 6.4,-6.3 0,0 0,0 0,0 0,0 1,0 1,-1.1 V 2.8 c 0,-0.6 -0.4,-1 -1,-1 z"
   id="path49008" />

			<path
   class="st0"
   d="m 53.6,19.8 v -8 C 53.6,5.8 49.3,1.7 42.9,1.7 v 0 c -0.6,0 -1,0.5 -1,1.1 v 1.6 c 0,1.1 1,1.1 1,1.1 0,0 0,0 0,0 3.6,0 6.4,2.8 6.4,6.3 v 8.3 l 1,1.2 -1,1.2 v 8.8 c 0,3.4 -2.9,6.4 -6.3,6.4 h -0.1 c -0.6,0 -1,0.5 -1,1.1 v 1.6 c 0,0.6 0.4,1.1 1,1.1 6.4,0 10.7,-4.1 10.7,-10.1 v -8.5 l 1.2,-1.5 z"
   id="path49010" />

		</g>
    </g>
  </g>
  <style
     type="text/css"
     id="style48982">
        .st0{fill:#f08300;}
        .st1{fill:#ffffff;opacity:1.00;}
        .st3{fill:#ffffff;opacity:1.00;}
    </style>
</svg>
